<svg xmlns="http://www.w3.org/2000/svg" fill="none" viewBox="0 0 16 16">
  <path fill="currentColor" d="M13.764 2.835a.745.745 0 0 0-.551-.165l-9.128.995a.724.724 0 0 1-.478-.206.647.647 0 0 1-.194-.46c0-.208 0-.523.842-.68 1.169-.217 7.65-.987 7.716-.992a.715.715 0 0 0 .46-.256.64.64 0 0 0-.123-.927.736.736 0 0 0-.514-.14C11.53.036 5.2.785 3.982 1.01 2.26 1.331 2.002 2.394 2.002 3v10.333c-.012.353.054.705.192 1.033.138.328.345.626.61.876.264.25.58.446.927.576.348.13.72.192 1.093.182.071 0 8.558-1.006 8.558-1.006a.719.719 0 0 0 .441-.22.646.646 0 0 0 .177-.44V3.331a.636.636 0 0 0-.062-.273.67.67 0 0 0-.174-.224z"/>
</svg>
