<svg xmlns="http://www.w3.org/2000/svg" fill="none" viewBox="0 0 16 16">
  <path fill="currentColor" d="M12.95 9.853 9.395 8.637V5a1.3 1.3 0 0 0-.41-.943 1.436 1.436 0 0 0-.99-.39c-.371 0-.727.14-.99.39-.262.25-.41.59-.41.943v5.64l-.578-.758a1.077 1.077 0 0 0-.376-.276 1.127 1.127 0 0 0-.464-.096l-.693.013c-.179 0-.355.044-.51.128a1.012 1.012 0 0 0-.378.352.95.95 0 0 0-.021.972l2.614 4.516a.998.998 0 0 0 .377.372c.158.09.34.137.524.137h4.47c.213-.002.42-.067.592-.185a.99.99 0 0 0 .373-.474l1.063-4.454a.921.921 0 0 0-.148-.656.996.996 0 0 0-.49-.378z"/>
  <path fill="currentColor" d="M3.87 7.933a.698.698 0 0 0 .219-.155.66.66 0 0 0 .179-.481.641.641 0 0 0-.067-.252A3.797 3.797 0 0 1 3.8 5.333c0-1.06.442-2.078 1.23-2.828A4.308 4.308 0 0 1 8 1.333c1.113 0 2.181.422 2.97 1.172a3.906 3.906 0 0 1 1.23 2.828 3.798 3.798 0 0 1-.405 1.714.638.638 0 0 0-.025.509.68.68 0 0 0 .36.377.75.75 0 0 0 .532.021.706.706 0 0 0 .4-.336c.356-.714.54-1.494.537-2.285 0-1.414-.59-2.77-1.64-3.77A5.744 5.744 0 0 0 7.999 0 5.746 5.746 0 0 0 4.04 1.562 5.208 5.208 0 0 0 2.4 5.333a5.077 5.077 0 0 0 .54 2.287.69.69 0 0 0 .397.34.733.733 0 0 0 .533-.027z"/>
</svg>
