<svg xmlns="http://www.w3.org/2000/svg" fill="none" viewBox="0 0 16 16">
  <path fill="currentColor" d="M10 11.333A1.333 1.333 0 0 0 11.333 10V1.333A1.333 1.333 0 0 0 10 0H1.333A1.333 1.333 0 0 0 0 1.333V10a1.333 1.333 0 0 0 1.333 1.333H10zM1.333 1.667a.333.333 0 0 1 .334-.334h8a.333.333 0 0 1 .333.334v8a.333.333 0 0 1-.334.333h-8a.333.333 0 0 1-.333-.334v-8z"/>
  <path fill="currentColor" d="M16 6.334a1.666 1.666 0 0 0-1.667-1.667h-1.216a.682.682 0 0 0-.784.657V11A1.333 1.333 0 0 1 11 12.333H5.334a.666.666 0 0 0-.667.667v1.333A1.667 1.667 0 0 0 6.334 16h8A1.668 1.668 0 0 0 16 14.333v-8z"/>
</svg>
