<svg xmlns="http://www.w3.org/2000/svg" fill="none" viewBox="0 0 16 16">
  <path fill="currentColor" d="M15.179 12.472a.68.68 0 0 0-.51.032.659.659 0 0 0-.337.375 2.668 2.668 0 0 1-.745 1.117c-.34.305-.754.52-1.203.626a2.78 2.78 0 0 1-1.361-.024 2.74 2.74 0 0 1-1.18-.665.327.327 0 0 1-.103-.233.322.322 0 0 1 .098-.234l1.032-1.01a.326.326 0 0 0 .072-.356.33.33 0 0 0-.307-.202H7.667a.337.337 0 0 0-.236.095.323.323 0 0 0-.098.231v2.912c0 .065.02.128.056.182a.332.332 0 0 0 .342.139.335.335 0 0 0 .17-.09l.528-.517a.338.338 0 0 1 .47 0 4.076 4.076 0 0 0 1.754 1.002 4.14 4.14 0 0 0 2.03.043 4.083 4.083 0 0 0 1.797-.927 3.969 3.969 0 0 0 1.114-1.664.641.641 0 0 0-.19-.704.672.672 0 0 0-.225-.128z"/>
  <path fill="currentColor" d="M5.963 15.416a.3.3 0 0 0 .34-.152c.02-.04.03-.083.03-.127v-.733a.323.323 0 0 0-.066-.196.334.334 0 0 0-.172-.118A6.73 6.73 0 0 1 5 13.666v-.852a1.615 1.615 0 0 1 .595-1.252c.472-.388.81-.909.97-1.492.159-.582.131-1.2-.08-1.766A2.948 2.948 0 0 0 5.388 6.9a3.043 3.043 0 0 0-1.72-.531H1.51a6.475 6.475 0 0 1 1.449-2.804 6.656 6.656 0 0 1 2.618-1.813 6.78 6.78 0 0 1 6.184.697H9.5a1.849 1.849 0 0 0-1.226.563 1.78 1.78 0 0 0-.5 1.233c0 .459.18.9.5 1.234.32.334.759.535 1.226.563a1.758 1.758 0 0 1 1.258.547 5.07 5.07 0 0 1 3.687.82.222.222 0 0 0 .279-.024 1.327 1.327 0 0 1 .943-.383.26.26 0 0 0 .192-.087.25.25 0 0 0 .06-.198 7.76 7.76 0 0 0-1.622-3.715 7.988 7.988 0 0 0-3.295-2.43 8.152 8.152 0 0 0-4.091-.5 8.088 8.088 0 0 0-3.802 1.564 7.86 7.86 0 0 0-2.503 3.21 7.697 7.697 0 0 0-.539 4.007 7.756 7.756 0 0 0 1.568 3.737 7.981 7.981 0 0 0 3.26 2.475l.105.052v-.014c.314.124.636.228.963.312z"/>
  <path fill="currentColor" d="M16 8.313a.323.323 0 0 0-.206-.302.34.34 0 0 0-.363.07l-.566.555a.338.338 0 0 1-.468.004 4.084 4.084 0 0 0-1.757-.99 4.144 4.144 0 0 0-2.026-.035 4.091 4.091 0 0 0-1.791.928 3.976 3.976 0 0 0-1.112 1.661.642.642 0 0 0 .033.5.662.662 0 0 0 .383.33c.167.056.35.045.51-.032a.658.658 0 0 0 .336-.375c.148-.426.402-.808.74-1.112a2.744 2.744 0 0 1 1.195-.626 2.78 2.78 0 0 1 1.354.015c.443.117.85.341 1.18.652a.325.325 0 0 1 .08.36.325.325 0 0 1-.073.107l-.99.97a.326.326 0 0 0-.071.355.336.336 0 0 0 .307.202h2.972a.337.337 0 0 0 .235-.096.325.325 0 0 0 .098-.23V8.313z"/>
</svg>
