<svg xmlns="http://www.w3.org/2000/svg" fill="none" viewBox="0 0 16 16">
  <path fill="currentColor" d="M7.201 14.583a.335.335 0 0 0-.227-.146A6.68 6.68 0 0 1 5 13.807v-.862a1.631 1.631 0 0 1 .595-1.266c.47-.392.809-.918.967-1.507a2.942 2.942 0 0 0-.079-1.783 2.974 2.974 0 0 0-1.097-1.416 3.02 3.02 0 0 0-1.72-.538H1.512A6.565 6.565 0 0 1 2.96 3.604a6.655 6.655 0 0 1 2.617-1.832 6.717 6.717 0 0 1 6.183.703H9.5c-.487 0-.953.19-1.297.531a1.806 1.806 0 0 0 0 2.568c.344.34.81.531 1.296.531a1.72 1.72 0 0 1 1.015.34.34.34 0 0 0 .255.06 5.345 5.345 0 0 1 2.592.197 5.3 5.3 0 0 1 2.185 1.396A.263.263 0 0 0 16 7.92a7.86 7.86 0 0 0-1.135-4.067A7.966 7.966 0 0 0 11.78.941a8.066 8.066 0 0 0-8.206.38A7.945 7.945 0 0 0 .781 4.508a7.852 7.852 0 0 0 .768 8.098 7.988 7.988 0 0 0 3.345 2.615L5 15.27v-.013a8.03 8.03 0 0 0 3 .583.132.132 0 0 0 .121-.082.128.128 0 0 0-.033-.142 5.332 5.332 0 0 1-.887-1.034z"/>
  <path fill="currentColor" d="M11.666 7.419c-.857 0-1.695.251-2.407.723a4.3 4.3 0 0 0-1.596 1.925 4.251 4.251 0 0 0-.247 2.48c.167.832.58 1.596 1.186 2.196a4.347 4.347 0 0 0 2.22 1.175c.84.165 1.711.08 2.503-.245a4.324 4.324 0 0 0 1.945-1.58 4.26 4.26 0 0 0 .73-2.384 4.274 4.274 0 0 0-1.27-3.033 4.36 4.36 0 0 0-3.064-1.257zm1.594 4.826-1.333 1.65a.334.334 0 0 1-.26.123.34.34 0 0 1-.261-.123l-1.334-1.65a.331.331 0 0 1 .261-.533h.5a.335.335 0 0 0 .312-.205.326.326 0 0 0 .024-.128v-1.65a.503.503 0 0 1 1 0v1.65a.328.328 0 0 0 .208.309.336.336 0 0 0 .13.024h.5a.34.34 0 0 1 .294.188.33.33 0 0 1-.034.345h-.007z"/>
</svg>
