<svg xmlns="http://www.w3.org/2000/svg" fill="none" viewBox="0 0 16 16">
  <path fill="currentColor" d="M14.468 3.353a.17.17 0 0 0 .17-.17v-.51a.51.51 0 0 0-.51-.511H5.277l-.123-.052-.914-.946A1.192 1.192 0 0 0 3.382.8H1.386A1.387 1.387 0 0 0 0 2.186v8.657a1.19 1.19 0 0 0 1.191 1.191h.17a.17.17 0 0 0 .17-.17V5.396a2.043 2.043 0 0 1 2.043-2.043h10.894z"/>
  <path fill="currentColor" fill-rule="evenodd" d="M3.915 4.545h10.894A1.193 1.193 0 0 1 16 5.736v8.17a1.193 1.193 0 0 1-1.191 1.192H3.915a1.192 1.192 0 0 1-1.192-1.192v-8.17a1.193 1.193 0 0 1 1.192-1.191zm5.719 2.587c.395 0 .715.32.715.715v1.43h1.43a.715.715 0 0 1 0 1.43h-1.43v1.43a.715.715 0 0 1-1.43 0v-1.43H7.49a.715.715 0 1 1 0-1.43h1.43v-1.43c0-.395.32-.715.715-.715z" clip-rule="evenodd"/>
</svg>
