<svg xmlns="http://www.w3.org/2000/svg" fill="none" viewBox="0 0 16 16">
  <path fill="currentColor" d="M13.25 1H2.75A1.75 1.75 0 0 0 1 2.75v10.5A1.75 1.75 0 0 0 2.75 15h10.5A1.75 1.75 0 0 0 15 13.25V2.75A1.75 1.75 0 0 0 13.25 1zM2.75 2.167h10.5a.583.583 0 0 1 .583.583v5.56H12.29c-.392 0-.532-.239-.88-1.185-.061-.167-.124-.34-.195-.515a.875.875 0 0 0-1.663.121l-.924 3.85-1.523-7.423a.88.88 0 0 0-.855-.7.875.875 0 0 0-.859.7 137.94 137.94 0 0 0-.46 2.323c-.506 2.657-.608 2.832-1.088 2.832H2.167V2.75a.583.583 0 0 1 .583-.583zm10.5 11.666H2.75a.583.583 0 0 1-.583-.583V9.476h1.676c1.517 0 1.724-1.109 2.235-3.78.055-.276.172-.897.172-.897l1.498 7.304a.87.87 0 0 0 .842.7h.015a.87.87 0 0 0 .853-.674l1.01-4.204c.313.792.746 1.551 1.824 1.551h1.541v3.774a.583.583 0 0 1-.583.583z"/>
</svg>
