<svg xmlns="http://www.w3.org/2000/svg" fill="none" viewBox="0 0 16 16">
  <path fill="currentColor" d="M.857 11.8a.837.837 0 0 1-.606-.264A.923.923 0 0 1 0 10.9V3.1c0-.557.212-1.09.586-1.484A1.955 1.955 0 0 1 2 1h10.286c.227 0 .445.095.606.264.16.168.25.397.25.636s-.09.468-.25.636a.837.837 0 0 1-.606.264H2a.279.279 0 0 0-.202.088.308.308 0 0 0-.084.212v7.8c0 .239-.09.468-.25.636a.837.837 0 0 1-.607.264z"/>
  <path fill="currentColor" d="M14.571 4H4.857c-.378 0-.742.159-1.01.44A1.541 1.541 0 0 0 3.43 5.5v8.4c0 .398.15.779.419 1.06.268.281.63.44 1.01.44h9.713c.38 0 .742-.159 1.01-.44s.418-.662.419-1.06V5.5c0-.398-.151-.779-.42-1.06A1.397 1.397 0 0 0 14.572 4zM14 5.8c.076 0 .149.032.202.088a.308.308 0 0 1 .084.212v6.3l-2.997-2.947a2.298 2.298 0 0 0-1.575-.633c-.58 0-1.142.226-1.575.633L5.143 12.4V6.1c0-.08.03-.156.084-.212a.279.279 0 0 1 .202-.088H14z"/>
</svg>
