<svg xmlns="http://www.w3.org/2000/svg" fill="none" viewBox="0 0 16 16">
  <path fill="currentColor" fill-rule="evenodd" d="M3.842 1.902a1.94 1.94 0 0 0-1.94 1.94v2.891a.951.951 0 0 1-1.902 0V3.842a3.842 3.842 0 1 1 7.684 0v2.175a.951.951 0 0 1-1.902 0V3.842a1.94 1.94 0 0 0-1.94-1.94z" clip-rule="evenodd"/>
  <path fill="currentColor" fill-rule="evenodd" d="M5.61 14.217a6.086 6.086 0 1 1 8.607-8.607 6.086 6.086 0 0 1-8.607 8.607zm5.28-5.242a.951.951 0 0 0-1.902 0v1.928a.951.951 0 0 0 1.902 0V8.975z" clip-rule="evenodd"/>
</svg>
