<svg xmlns="http://www.w3.org/2000/svg" fill="none" viewBox="0 0 16 17">
  <path fill="currentColor" fill-rule="evenodd" d="M8 2.823A2.388 2.388 0 0 0 5.613 5.21v1.67a.937.937 0 0 1-1.875 0V5.21a4.262 4.262 0 0 1 8.524 0v1.67a.937.937 0 1 1-1.875 0V5.21A2.387 2.387 0 0 0 8 2.823z" clip-rule="evenodd"/>
  <path fill="currentColor" fill-rule="evenodd" d="M3.757 15.128a6 6 0 1 1 8.486-8.485 6 6 0 0 1-8.486 8.485zm5.18-5.168a.937.937 0 0 0-1.874 0v1.9a.937.937 0 1 0 1.875 0v-1.9z" clip-rule="evenodd"/>
</svg>
