<svg xmlns="http://www.w3.org/2000/svg" fill="none" viewBox="0 0 17 16">
  <path fill="currentColor" d="M9 4a4.789 4.789 0 0 0-4.767 5.013c0 2.96 3.04 5.767 4.347 6.834A.627.627 0 0 0 9 16a.615.615 0 0 0 .42-.153c1.307-1.067 4.347-3.874 4.347-6.834A4.788 4.788 0 0 0 9 4zm0 7a2.333 2.333 0 1 1 0-4.666A2.333 2.333 0 0 1 9 11z"/>
  <path fill="currentColor" d="M3.876 4.333 2.209 3.59a.834.834 0 1 0-.752 1.487l1.667.744a.833.833 0 1 0 .752-1.488z"/>
  <path fill="currentColor" d="M5.883 3.123a.833.833 0 0 0 1.562-.579l-.83-2a.833.833 0 0 0-1.563.58l.83 2z"/>
  <path fill="currentColor" d="M16.91 3.957a.833.833 0 0 0-1.12-.366l-1.666.742a.833.833 0 1 0 .753 1.487l1.666-.743a.833.833 0 0 0 .367-1.12z"/>
  <path fill="currentColor" d="M11.046 3.615a.831.831 0 0 0 1.071-.492l.831-2a.833.833 0 0 0-1.563-.579l-.83 2a.832.832 0 0 0 .491 1.07z"/>
</svg>
