<svg xmlns="http://www.w3.org/2000/svg" fill="none" viewBox="0 0 16 16">
  <path fill="currentColor" d="M8 2a6 6 0 106 6 6.006 6.006 0 00-6-6zm0 10.5a4.5 4.5 0 110-9 4.5 4.5 0 010 9z"/>
  <path fill="currentColor" d="M10.25 7.386H8.72a.107.107 0 01-.106-.107V5.75a.41.41 0 00-.41-.41h-.409a.41.41 0 00-.409.41v1.53a.107.107 0 01-.107.106h-1.53a.41.41 0 00-.408.41v.408a.41.41 0 00.409.41h1.529a.107.107 0 01.107.107v1.529a.41.41 0 00.41.409h.408a.41.41 0 00.41-.409V8.72a.107.107 0 01.107-.106h1.529a.41.41 0 00.41-.41v-.409a.41.41 0 00-.41-.409z"/>
</svg>
