<svg xmlns="http://www.w3.org/2000/svg" fill="none" viewBox="0 0 16 16">
  <path fill="currentColor" d="M13.213 6.923A7.58 7.58 0 0 0 8 4a7.58 7.58 0 0 0-5.213 2.923 1.62 1.62 0 0 0 0 2.109A7.501 7.501 0 0 0 8 12a7.5 7.5 0 0 0 5.213-2.968 1.62 1.62 0 0 0 0-2.109zm-1.44 1.307A5.726 5.726 0 0 1 8 10.4a5.726 5.726 0 0 1-3.765-2.17.398.398 0 0 1 0-.536A5.827 5.827 0 0 1 8 5.6a5.827 5.827 0 0 1 3.758 2.094.398.398 0 0 1 .007.536h.008z"/>
  <path fill="currentColor" d="M6.8 8a1.2 1.2 0 1 0 2.4 0 1.2 1.2 0 0 0-2.4 0z"/>
  <path fill="currentColor" d="M1.2 5.477a1.2 1.2 0 0 1-1.2-1.2v-1.97A2.31 2.31 0 0 1 2.307 0h1.97a1.2 1.2 0 0 1 0 2.4H2.728a.402.402 0 0 0-.4.42L2.4 4.276a1.2 1.2 0 0 1-1.2 1.2z"/>
  <path fill="currentColor" d="M14.8 5.477a1.2 1.2 0 0 1-1.2-1.2V2.728a.403.403 0 0 0-.42-.4l-1.457.072a1.2 1.2 0 1 1 0-2.4h1.97A2.31 2.31 0 0 1 16 2.307v1.97a1.2 1.2 0 0 1-1.2 1.2z"/>
  <path fill="currentColor" d="M4.277 16h-1.97A2.31 2.31 0 0 1 0 13.693v-1.97a1.2 1.2 0 1 1 2.4 0v1.557a.402.402 0 0 0 .42.4l1.457-.08a1.2 1.2 0 1 1 0 2.4z"/>
  <path fill="currentColor" d="M13.693 16h-1.97a1.2 1.2 0 1 1 0-2.4h1.557a.404.404 0 0 0 .4-.42l-.08-1.457a1.2 1.2 0 1 1 2.4 0v1.97A2.31 2.31 0 0 1 13.693 16z"/>
</svg>
