<svg xmlns="http://www.w3.org/2000/svg" fill="none" viewBox="0 0 16 16">
  <path fill="currentColor" d="M11.188 3.141a.399.399 0 00-.454-.113.414.414 0 00-.191.156.436.436 0 00-.073.242v1.49c0 .057-.021.111-.06.151a.203.203 0 01-.146.063H5.843a4.764 4.764 0 00-3.42 1.463A5.096 5.096 0 001 10.127c-.004.95.26 1.88.758 2.677a.416.416 0 00.175.157.4.4 0 00.44-.063.428.428 0 00.127-.2 3.535 3.535 0 011.235-1.776 3.346 3.346 0 012.008-.684h4.521a.2.2 0 01.146.063.214.214 0 01.06.15v1.49c0 .087.025.171.073.242a.413.413 0 00.192.157.398.398 0 00.454-.113l3.705-4.258a.434.434 0 000-.57l-3.706-4.258z"/>
</svg>
