<svg xmlns="http://www.w3.org/2000/svg" fill="none" viewBox="0 0 16 16">
  <path fill="currentColor" d="M14.974 6.737H1.026c-.272 0-.533-.111-.726-.308a1.067 1.067 0 0 1-.3-.745c0-.279.108-.547.3-.744.193-.198.454-.308.726-.308h13.948c.272 0 .533.11.726.308.192.197.3.465.3.744 0 .28-.108.547-.3.745a1.012 1.012 0 0 1-.726.308z"/>
  <path fill="currentColor" d="M14.974 2.105H3.898c-.272 0-.533-.11-.726-.308a1.067 1.067 0 0 1-.3-.744c0-.28.108-.547.3-.745C3.365.111 3.626 0 3.898 0h11.076c.272 0 .533.11.726.308.192.198.3.465.3.745 0 .279-.108.547-.3.744a1.013 1.013 0 0 1-.726.308z"/>
  <path fill="currentColor" d="M14.974 11.368H3.898c-.272 0-.533-.11-.726-.308a1.067 1.067 0 0 1-.3-.744c0-.28.108-.547.3-.745.193-.197.454-.308.726-.308h11.076c.272 0 .533.111.726.308a1.071 1.071 0 0 1 0 1.489 1.013 1.013 0 0 1-.726.308z"/>
  <path fill="currentColor" d="M14.974 16H1.026c-.272 0-.533-.11-.726-.308a1.067 1.067 0 0 1-.3-.745c0-.279.108-.546.3-.744.193-.197.454-.308.726-.308h13.948c.272 0 .533.11.726.308.192.197.3.465.3.744 0 .28-.108.547-.3.745a1.012 1.012 0 0 1-.726.308z"/>
</svg>
