<svg xmlns="http://www.w3.org/2000/svg" fill="none" viewBox="0 0 20 20">
  <path fill="currentColor" fill-rule="evenodd" d="M16.46 19.045a1.033 1.033 0 0 1 0-1.46l1.124-1.124a1.033 1.033 0 1 1 1.46 1.46l-1.123 1.124a1.033 1.033 0 0 1-1.46 0z" clip-rule="evenodd"/>
  <path fill="currentColor" fill-rule="evenodd" d="M.955 3.54a1.033 1.033 0 0 1 0-1.461L2.079.955a1.033 1.033 0 1 1 1.46 1.46L2.416 3.54a1.033 1.033 0 0 1-1.461 0z" clip-rule="evenodd"/>
  <path fill="currentColor" fill-rule="evenodd" d="M11.068 19.27a1.033 1.033 0 0 1 0-1.461l6.741-6.742a1.033 1.033 0 1 1 1.46 1.461l-6.74 6.742a1.033 1.033 0 0 1-1.461 0z" clip-rule="evenodd"/>
  <path fill="currentColor" fill-rule="evenodd" d="M.73 8.932a1.033 1.033 0 0 1 0-1.46L7.472.73a1.033 1.033 0 1 1 1.46 1.461L2.191 8.932a1.033 1.033 0 0 1-1.46 0z" clip-rule="evenodd"/>
  <path fill="currentColor" fill-rule="evenodd" d="M6.236 18.932a1.033 1.033 0 0 1 0-1.46L17.472 6.236a1.033 1.033 0 0 1 1.46 1.46L7.698 18.933a1.033 1.033 0 0 1-1.461 0z" clip-rule="evenodd"/>
  <path fill="currentColor" fill-rule="evenodd" d="M1.067 13.764a1.033 1.033 0 0 1 0-1.46L12.303 1.067a1.033 1.033 0 1 1 1.46 1.46L2.529 13.764a1.033 1.033 0 0 1-1.46 0z" clip-rule="evenodd"/>
  <path fill="currentColor" fill-rule="evenodd" d="M1.405 18.595a1.033 1.033 0 0 1 0-1.46l15.73-15.73a1.033 1.033 0 0 1 1.46 1.46l-15.73 15.73a1.033 1.033 0 0 1-1.46 0z" clip-rule="evenodd"/>
</svg>
