<svg xmlns="http://www.w3.org/2000/svg" fill="none" viewBox="0 0 20 20">
  <path fill="currentColor" d="m16.188 12.316-4.444-1.52V6.25c0-.442-.184-.866-.512-1.178a1.795 1.795 0 0 0-1.238-.489c-.464 0-.909.176-1.237.489a1.627 1.627 0 0 0-.513 1.178v7.05l-.722-.948a1.346 1.346 0 0 0-.47-.344 1.408 1.408 0 0 0-.58-.12l-.866.015c-.224 0-.444.055-.64.16a1.265 1.265 0 0 0-.471.44 1.187 1.187 0 0 0-.027 1.216l3.268 5.644c.11.193.273.354.471.466.198.112.425.171.655.171h5.589c.265-.003.524-.084.74-.23a1.24 1.24 0 0 0 .466-.594l1.329-5.567a1.152 1.152 0 0 0-.184-.82 1.244 1.244 0 0 0-.614-.473z"/>
  <path fill="currentColor" d="M4.837 9.917a.873.873 0 0 0 .274-.195.797.797 0 0 0 .14-.916 4.747 4.747 0 0 1-.501-2.14c0-1.325.553-2.597 1.537-3.535A5.385 5.385 0 0 1 10 1.667c1.393 0 2.728.526 3.712 1.464a4.883 4.883 0 0 1 1.538 3.536c.002.74-.17 1.473-.505 2.141a.797.797 0 0 0-.032.637.85.85 0 0 0 .45.472c.21.09.448.099.666.025a.882.882 0 0 0 .5-.42 6.347 6.347 0 0 0 .67-2.855c0-1.768-.737-3.464-2.05-4.714C13.637.703 11.857 0 10 0 8.143 0 6.363.702 5.05 1.953 3.737 3.203 3 4.899 3 6.667a6.346 6.346 0 0 0 .675 2.858c.1.198.278.35.496.424a.915.915 0 0 0 .666-.032z"/>
</svg>
