<svg xmlns="http://www.w3.org/2000/svg" fill="none" viewBox="0 0 20 20">
  <path fill="currentColor" d="m18.684 8.134-1.055-.374a1.145 1.145 0 0 1-.65-1.572l.48-1.01A1.98 1.98 0 0 0 14.82 2.54l-1.01.48a1.146 1.146 0 0 1-1.571-.65l-.375-1.055a1.98 1.98 0 0 0-3.73 0L7.76 2.37a1.146 1.146 0 0 1-1.571.65l-1.011-.48a1.98 1.98 0 0 0-2.637 2.638l.48 1.01a1.146 1.146 0 0 1-.65 1.572l-1.055.375a1.98 1.98 0 0 0 0 3.73l1.055.374a1.145 1.145 0 0 1 .65 1.571l-.48 1.01a1.98 1.98 0 0 0 2.637 2.638l1.01-.48a1.144 1.144 0 0 1 1.572.651l.375 1.054a1.98 1.98 0 0 0 3.73 0l.375-1.055a1.144 1.144 0 0 1 1.57-.65l1.011.48a1.979 1.979 0 0 0 2.638-2.637l-.48-1.011a1.145 1.145 0 0 1 .65-1.57l1.055-.377a1.98 1.98 0 0 0 0-3.729zM10 13.986a4.108 4.108 0 0 1-3.701-2.454 4.01 4.01 0 0 1 2.167-5.234A4.057 4.057 0 0 1 13.7 8.465a4.01 4.01 0 0 1-2.167 5.234c-.486.2-1.008.298-1.533.287z"/>
</svg>
