<svg xmlns="http://www.w3.org/2000/svg" fill="none" viewBox="0 0 20 20">
  <path fill="currentColor" d="M6.75 10.833h6.779a.399.399 0 0 0 .34-.188.423.423 0 0 0 .034-.395l-1.179-2.81a.797.797 0 0 0-1.29-.056L10.208 9a.2.2 0 0 1-.284.038L8.642 8.036a.796.796 0 0 0-1.035.172l-1.2 1.99a.425.425 0 0 0 .139.578.4.4 0 0 0 .205.057z"/>
  <path fill="currentColor" d="M6.427 4.583c0 .332.129.65.357.884.229.235.539.366.862.366.323 0 .633-.131.862-.366.229-.234.357-.552.357-.884 0-.331-.128-.65-.357-.884a1.204 1.204 0 0 0-.862-.366c-.323 0-.633.132-.862.366a1.266 1.266 0 0 0-.357.884z"/>
  <path fill="currentColor" d="M14.063 12.083H5.937a.802.802 0 0 0-.574.245.844.844 0 0 0 0 1.178.803.803 0 0 0 .575.244h8.125a.802.802 0 0 0 .574-.244.844.844 0 0 0 0-1.178.802.802 0 0 0-.575-.245z"/>
  <path fill="currentColor" d="M14.063 14.583H5.937a.802.802 0 0 0-.574.245.844.844 0 0 0 0 1.178.803.803 0 0 0 .575.244h8.125a.802.802 0 0 0 .574-.244.844.844 0 0 0 0-1.178.802.802 0 0 0-.575-.245z"/>
  <path fill="currentColor" d="M17.887 4.756 13.488.244A.803.803 0 0 0 12.914 0H3.5c-.431 0-.844.176-1.149.488a1.689 1.689 0 0 0-.476 1.179v16.666c0 .442.171.866.476 1.179.305.312.718.488 1.149.488h13c.431 0 .844-.176 1.149-.488.305-.313.476-.737.476-1.179V5.345a.844.844 0 0 0-.238-.59zM16.5 17.916c0 .111-.043.217-.119.295a.401.401 0 0 1-.287.122H3.906a.401.401 0 0 1-.287-.122.422.422 0 0 1-.119-.294V2.083c0-.11.043-.216.119-.294a.401.401 0 0 1 .287-.122h8.503c.108 0 .21.043.287.121l3.685 3.78a.422.422 0 0 1 .119.295v12.054z"/>
</svg>
