<svg xmlns="http://www.w3.org/2000/svg" fill="none" viewBox="0 0 20 20">
  <path fill="currentColor" d="M18.819 15.722 11.405 1.834a1.569 1.569 0 0 0-.583-.61 1.61 1.61 0 0 0-1.643 0c-.247.148-.45.358-.584.61L1.181 15.722a1.532 1.532 0 0 0 .048 1.528c.141.229.34.418.578.55.238.131.507.2.78.2h14.826c.273 0 .542-.069.78-.2.237-.132.436-.321.578-.55a1.534 1.534 0 0 0 .048-1.528zM9.207 6.714a.77.77 0 0 1 .232-.55.801.801 0 0 1 1.122 0 .77.77 0 0 1 .232.55v4.669a.77.77 0 0 1-.232.55.8.8 0 0 1-1.122 0 .77.77 0 0 1-.232-.55V6.714zm.833 8.956h-.022a1.224 1.224 0 0 1-.839-.334 1.179 1.179 0 0 1-.369-.81 1.129 1.129 0 0 1 .32-.832 1.17 1.17 0 0 1 .829-.358h.022c.313 0 .613.119.838.332.226.213.358.503.37.809a1.127 1.127 0 0 1-.318.834 1.17 1.17 0 0 1-.831.359z"/>
</svg>
