<svg xmlns="http://www.w3.org/2000/svg" fill="none" viewBox="0 0 20 20">
  <path fill="currentColor" d="M19.526 9.28a17.823 17.823 0 0 0-3.658-3.063L19.27 2.82a.85.85 0 1 0-1.203-1.203l-.015.015a.627.627 0 0 1-.147.248L1.317 18.467c-.007.006-.015.008-.022.014a.85.85 0 0 0 1.387.926L6.21 15.88a9.58 9.58 0 0 0 3.667.799h.255c3.62 0 7.221-2.539 9.4-4.934a1.847 1.847 0 0 0-.005-2.465zm-5.859 2.314a3.896 3.896 0 0 1-2.552 2.576 3.657 3.657 0 0 1-2.637-.162.215.215 0 0 1-.058-.346l4.73-4.729a.214.214 0 0 1 .346.057c.375.818.436 1.745.171 2.604z"/>
  <path fill="currentColor" d="M6.268 11.705a.208.208 0 0 0 .052-.204 3.67 3.67 0 0 1-.15-.987 3.828 3.828 0 0 1 3.828-3.828c.334.003.666.053.987.147a.208.208 0 0 0 .204-.053l1.651-1.652a.216.216 0 0 0-.085-.358 8.858 8.858 0 0 0-2.757-.423C6.34 4.297 2.682 6.857.482 9.28a1.829 1.829 0 0 0-.006 2.467A18.04 18.04 0 0 0 3.4 14.324a.218.218 0 0 0 .277-.025l2.59-2.594z"/>
</svg>
