<svg xmlns="http://www.w3.org/2000/svg" fill="none" viewBox="0 0 20 20">
  <path fill="currentColor" d="M17.875 7a1.083 1.083 0 0 0-.402-.417c-.17-.101-.365-.154-.564-.154h-4.363a.367.367 0 0 1-.258-.105.354.354 0 0 1-.106-.253v-5c0-.228-.075-.45-.213-.635a1.09 1.09 0 0 0-.554-.388 1.11 1.11 0 0 0-.681.011c-.22.075-.41.217-.542.405l-8 11.429a1.059 1.059 0 0 0 .335 1.524c.17.101.365.155.564.155h4.364c.096 0 .189.037.257.104a.354.354 0 0 1 .106.253v5c0 .228.075.451.212.635a1.092 1.092 0 0 0 .88.436 1.103 1.103 0 0 0 .898-.464l8-11.429A1.063 1.063 0 0 0 17.875 7z"/>
</svg>
