<svg xmlns="http://www.w3.org/2000/svg" fill="none" viewBox="0 0 20 20">
  <path fill="currentColor" d="m19.074 11.973-5.97 4.652a1.803 1.803 0 0 1-2.014.162 2.016 2.016 0 0 1-.77-.778 2.258 2.258 0 0 1-.283-1.101v-2.154l-4.97 3.871a1.803 1.803 0 0 1-2.014.162 2.015 2.015 0 0 1-.77-.778A2.258 2.258 0 0 1 2 14.908V5.113c0-.389.098-.77.284-1.1.185-.332.45-.601.767-.779a1.803 1.803 0 0 1 2.013.16l4.973 3.872V5.113c0-.389.098-.77.284-1.1.185-.332.45-.601.767-.779a1.803 1.803 0 0 1 2.013.16l5.972 4.653c.287.223.52.518.682.86.16.34.245.719.245 1.103s-.084.763-.245 1.104a2.364 2.364 0 0 1-.682.859h.001z"/>
</svg>
