<svg xmlns="http://www.w3.org/2000/svg" fill="none" viewBox="0 0 20 20">
  <path fill="currentColor" d="M9.002 18.228a.419.419 0 0 0-.285-.182 8.352 8.352 0 0 1-2.468-.788v-1.076a2.04 2.04 0 0 1 .745-1.584 3.709 3.709 0 0 0 1.209-1.883 3.678 3.678 0 0 0-.1-2.229 3.717 3.717 0 0 0-1.371-1.77 3.776 3.776 0 0 0-2.149-.672H1.89a8.207 8.207 0 0 1 1.81-3.54 8.319 8.319 0 0 1 3.273-2.29 8.396 8.396 0 0 1 7.728.88h-2.826c-.608 0-1.19.238-1.62.664a2.258 2.258 0 0 0-.672 1.604c0 .602.242 1.18.672 1.605.43.426 1.012.665 1.62.665a2.15 2.15 0 0 1 1.269.424.423.423 0 0 0 .318.075 6.682 6.682 0 0 1 3.24.247 6.625 6.625 0 0 1 2.731 1.744A.33.33 0 0 0 20 9.9c0-1.79-.49-3.547-1.42-5.083a9.958 9.958 0 0 0-3.853-3.641 10.082 10.082 0 0 0-10.258.476A9.93 9.93 0 0 0 .976 5.634a9.815 9.815 0 0 0 .96 10.123 9.985 9.985 0 0 0 4.181 3.268l.132.064v-.017c1.191.481 2.465.729 3.751.73a.165.165 0 0 0 .151-.104.161.161 0 0 0-.042-.177 6.67 6.67 0 0 1-1.107-1.293z"/>
  <path fill="currentColor" d="M14.583 9.273a5.456 5.456 0 0 0-3.01.904 5.376 5.376 0 0 0-1.995 2.407 5.314 5.314 0 0 0-.308 3.1 5.347 5.347 0 0 0 1.483 2.745 5.434 5.434 0 0 0 2.774 1.468c1.05.207 2.14.1 3.13-.306a5.406 5.406 0 0 0 2.43-1.975c.596-.883.913-1.92.913-2.98a5.343 5.343 0 0 0-1.589-3.79 5.45 5.45 0 0 0-3.828-1.573zm1.992 6.034-1.666 2.062a.42.42 0 0 1-.506.113.42.42 0 0 1-.146-.113l-1.666-2.063a.413.413 0 0 1 .108-.6.423.423 0 0 1 .217-.066h.625a.421.421 0 0 0 .39-.257.408.408 0 0 0 .03-.16v-2.062c0-.165.067-.322.184-.438a.628.628 0 0 1 .884 0 .616.616 0 0 1 .184.438v2.062a.408.408 0 0 0 .259.386c.05.021.106.031.161.03h.625a.423.423 0 0 1 .368.236.413.413 0 0 1-.042.431h-.009z"/>
</svg>
