<svg xmlns="http://www.w3.org/2000/svg" fill="none" viewBox="0 0 20 20">
  <path fill="currentColor" d="M18.973 15.59a.85.85 0 0 0-.637.039.823.823 0 0 0-.422.469 3.333 3.333 0 0 1-.93 1.397 3.43 3.43 0 0 1-1.505.781 3.475 3.475 0 0 1-1.701-.029 3.425 3.425 0 0 1-1.476-.832.411.411 0 0 1-.127-.29.403.403 0 0 1 .122-.293l1.29-1.263a.407.407 0 0 0 .09-.445.424.424 0 0 0-.384-.253h-3.71a.42.42 0 0 0-.295.12.404.404 0 0 0-.122.289v3.64c0 .08.025.159.07.226a.415.415 0 0 0 .428.174.419.419 0 0 0 .213-.111l.659-.647a.422.422 0 0 1 .587 0 5.094 5.094 0 0 0 2.193 1.252 5.17 5.17 0 0 0 2.538.053A5.105 5.105 0 0 0 18.1 18.71a4.96 4.96 0 0 0 1.391-2.08.801.801 0 0 0-.236-.88.84.84 0 0 0-.282-.16z"/>
  <path fill="currentColor" d="M7.454 19.27a.376.376 0 0 0 .318-.064.363.363 0 0 0 .144-.286v-.916a.404.404 0 0 0-.083-.245.417.417 0 0 0-.214-.147 8.418 8.418 0 0 1-1.37-.53v-1.066c0-.298.066-.593.195-.863s.316-.51.55-.702a3.667 3.667 0 0 0 1.211-1.864c.2-.728.165-1.499-.098-2.208a3.685 3.685 0 0 0-1.373-1.753 3.803 3.803 0 0 0-2.151-.664H1.887A8.093 8.093 0 0 1 3.7 4.458 8.32 8.32 0 0 1 6.97 2.19a8.476 8.476 0 0 1 3.975-.505A8.423 8.423 0 0 1 14.7 3.062h-2.826a2.316 2.316 0 0 0-1.532.704c-.4.417-.624.969-.624 1.542 0 .573.223 1.124.624 1.541.4.418.949.67 1.532.704.296.003.588.064.859.182.27.117.513.288.714.502.333-.054.67-.082 1.008-.084a6.404 6.404 0 0 1 3.6 1.11.277.277 0 0 0 .349-.031 1.658 1.658 0 0 1 1.178-.479.325.325 0 0 0 .24-.108.312.312 0 0 0 .076-.248 9.7 9.7 0 0 0-2.028-4.644A9.984 9.984 0 0 0 13.752.716 10.189 10.189 0 0 0 8.638.09a10.11 10.11 0 0 0-4.752 1.955A9.826 9.826 0 0 0 .757 6.059a9.62 9.62 0 0 0-.673 5.008 9.695 9.695 0 0 0 1.96 4.67 9.977 9.977 0 0 0 4.074 3.095l.132.065v-.018c.392.155.794.286 1.204.39z"/>
  <path fill="currentColor" d="M20 10.39a.416.416 0 0 0-.498-.4.42.42 0 0 0-.215.111l-.706.694a.422.422 0 0 1-.585.004A5.104 5.104 0 0 0 15.8 9.562a5.18 5.18 0 0 0-2.533-.044 5.113 5.113 0 0 0-2.24 1.16 4.97 4.97 0 0 0-1.388 2.077.802.802 0 0 0 .04.624c.098.194.27.343.479.413a.85.85 0 0 0 .637-.04.822.822 0 0 0 .421-.469c.184-.532.502-1.01.925-1.39a3.43 3.43 0 0 1 1.493-.782 3.475 3.475 0 0 1 1.693.019 3.426 3.426 0 0 1 1.475.815.407.407 0 0 1 .099.448.406.406 0 0 1-.09.135l-1.238 1.212a.407.407 0 0 0-.09.445.424.424 0 0 0 .384.253h3.715c.11-.001.217-.044.295-.12a.405.405 0 0 0 .122-.29v-3.637z"/>
</svg>
