<svg xmlns="http://www.w3.org/2000/svg" fill="none" viewBox="0 0 20 21">
  <path fill="currentColor" d="M10.667 6.833a.728.728 0 0 0-1.417-.031l-1.333 2.92a.208.208 0 0 1-.35.046l-.91-1.095a.97.97 0 0 0-1.64.128L2.947 12.25a.417.417 0 0 0 .357.63h9.167a.417.417 0 0 0 .387-.57l-2.19-5.477z"/>
  <path fill="currentColor" d="M3.303 4.583a1.667 1.667 0 1 0 3.334 0 1.667 1.667 0 0 0-3.334 0z"/>
  <path fill="currentColor" d="M14.167 15.833a1.667 1.667 0 0 0 1.666-1.666v-12.5A1.667 1.667 0 0 0 14.167 0h-12.5A1.667 1.667 0 0 0 0 1.667v12.5a1.667 1.667 0 0 0 1.667 1.666h12.5zm-12.5-13.75a.417.417 0 0 1 .416-.416H13.75a.417.417 0 0 1 .417.416V13.75a.416.416 0 0 1-.417.417H2.083a.416.416 0 0 1-.416-.417V2.083z"/>
  <path fill="currentColor" d="M19.993 7.696a1.667 1.667 0 0 0-1.51-1.81l-.833-.076a.833.833 0 0 0-.15 1.66l.417.037a.417.417 0 0 1 .377.453l-.908 9.957a.417.417 0 0 1-.453.376l-11.202-1.02a.834.834 0 1 0-.148 1.66l11.618 1.061a1.669 1.669 0 0 0 1.811-1.509l.981-10.79z"/>
</svg>
