<svg xmlns="http://www.w3.org/2000/svg" fill="none" viewBox="0 0 20 20">
  <path fill="currentColor" d="M1.071 14.5c-.284 0-.556-.118-.757-.33A1.154 1.154 0 0 1 0 13.376v-9.75c0-.696.264-1.363.733-1.855A2.444 2.444 0 0 1 2.5 1h12.857c.284 0 .557.119.758.33.2.21.314.497.314.795 0 .298-.113.585-.314.796-.201.21-.474.329-.758.329H2.5a.349.349 0 0 0-.253.11.385.385 0 0 0-.104.265v9.75c0 .298-.113.585-.314.796-.2.21-.473.329-.758.329z"/>
  <path fill="currentColor" d="M18.214 4.75H6.071c-.473 0-.927.199-1.261.55a1.927 1.927 0 0 0-.524 1.325v10.5c0 .497.189.974.524 1.325.334.352.788.55 1.261.55h12.143c.474 0 .928-.198 1.262-.55.335-.351.523-.828.524-1.325v-10.5c0-.497-.19-.973-.524-1.325a1.747 1.747 0 0 0-1.262-.55zM17.5 7c.095 0 .186.04.253.11s.104.166.104.265v7.875l-3.745-3.684a2.872 2.872 0 0 0-1.97-.79c-.726 0-1.427.281-1.968.79L6.43 15.25V7.375c0-.1.037-.195.104-.265A.349.349 0 0 1 6.786 7H17.5z"/>
</svg>
