<svg xmlns="http://www.w3.org/2000/svg" fill="none" viewBox="0 0 20 20">
  <path fill="currentColor" d="M10 0C5.175 0 1.25 3.552 1.25 7.917c0 4.79 6.083 10.238 7.95 11.793a1.25 1.25 0 0 0 1.6 0c1.867-1.557 7.95-7.005 7.95-11.793C18.75 3.552 14.825 0 10 0zm0 2.5A1.25 1.25 0 1 1 10 5a1.25 1.25 0 0 1 0-2.5zm3.125 10.208a.833.833 0 0 1-.833.834H8.958a.833.833 0 1 1 0-1.667h.417a.416.416 0 0 0 .417-.417V8.125a.417.417 0 0 0-.417-.417h-.417a.833.833 0 1 1 0-1.666h.834a1.667 1.667 0 0 1 1.666 1.666v3.75a.417.417 0 0 0 .417.417h.417a.833.833 0 0 1 .833.833z"/>
</svg>
