<svg xmlns="http://www.w3.org/2000/svg" fill="none" viewBox="0 0 20 20">
  <path fill="currentColor" d="M17.833 1.874A1.874 1.874 0 0 0 15.25.139l-7.5 3.068a1.867 1.867 0 0 0-1.167 1.735v8.182a.209.209 0 0 1-.208.208H5.333a3.333 3.333 0 0 0 0 6.667 3.416 3.416 0 0 0 3.334-3.333V8.964a.207.207 0 0 1 .129-.193l6.667-2.727a.208.208 0 0 1 .287.192v3.559a.208.208 0 0 1-.208.208H14.5a3.333 3.333 0 1 0 0 6.667 3.417 3.417 0 0 0 3.333-3.334V1.874zM8.954 6.457a.208.208 0 0 1-.287-.192v-.903a.417.417 0 0 1 .259-.386l6.25-2.557a.417.417 0 0 1 .574.386v.73a.207.207 0 0 1-.13.192l-6.666 2.73z"/>
</svg>
