<svg xmlns="http://www.w3.org/2000/svg" fill="none" viewBox="0 0 20 20">
  <path fill="currentColor" d="M19.167 2.083h-1.042a.209.209 0 0 0-.208.209v1.25a.209.209 0 0 0 .208.208h1.042a.833.833 0 0 0 0-1.667z"/>
  <path fill="currentColor" d="M2.5 2.083a2.5 2.5 0 0 0-2.5 2.5V6.25a2.5 2.5 0 0 0 2.5 2.5h6.667a.833.833 0 0 1 .833.833v.271a.209.209 0 0 0 .25.204 2.945 2.945 0 0 1 1.167 0 .208.208 0 0 0 .25-.204v-.27a2.5 2.5 0 0 0-2.5-2.5H2.5a.833.833 0 0 1-.833-.834V4.583A.833.833 0 0 1 2.5 3.75h.208a.208.208 0 0 0 .209-.208v-1.25a.208.208 0 0 0-.209-.209H2.5z"/>
  <path fill="currentColor" d="M3.75 0h13.333v5.833H3.75V0z"/>
  <path fill="currentColor" d="M8.75 12.917v5.833A1.25 1.25 0 0 0 10 20h1.667a1.25 1.25 0 0 0 1.25-1.25v-5.833a2.083 2.083 0 0 0-4.167 0z"/>
</svg>
