<svg xmlns="http://www.w3.org/2000/svg" fill="none" viewBox="0 0 20 20">
  <path fill="currentColor" d="M0 10A10 10 0 1 0 10 0 10.011 10.011 0 0 0 0 10zm4.348-.435a.87.87 0 0 1 .87-.87h3.26a.217.217 0 0 0 .218-.217v-3.26a.87.87 0 0 1 .87-.87h.869a.87.87 0 0 1 .87.87v3.26a.217.217 0 0 0 .217.218h3.26a.87.87 0 0 1 .87.87v.869a.87.87 0 0 1-.87.87h-3.26a.217.217 0 0 0-.218.217v3.26a.87.87 0 0 1-.87.87h-.869a.87.87 0 0 1-.87-.87v-3.26a.217.217 0 0 0-.217-.218h-3.26a.87.87 0 0 1-.87-.87v-.869z"/>
</svg>
