<svg xmlns="http://www.w3.org/2000/svg" fill="none" viewBox="0 0 20 20">
  <path fill="currentColor" d="M20 14.25V8.417a1.25 1.25 0 0 0-1.25-1.25h-.212a.208.208 0 0 0-.208.215v.201a5.834 5.834 0 0 1-11.667 0v-.201a.207.207 0 0 0-.201-.215H1.25A1.25 1.25 0 0 0 0 8.417v5.833a1.25 1.25 0 0 0 1.25 1.25h17.5A1.25 1.25 0 0 0 20 14.25zM2.917 11.958a.625.625 0 1 1-1.25 0V9.875a.625.625 0 1 1 1.25 0v2.083zm2.5 0a.625.625 0 1 1-1.25 0V9.875a.625.625 0 1 1 1.25 0v2.083z"/>
  <path fill="currentColor" d="M1.25 17.167a.833.833 0 0 0 1.667 0v-.625a.207.207 0 0 0-.209-.209h-1.25a.208.208 0 0 0-.208.209v.625z"/>
  <path fill="currentColor" d="M17.083 17.167a.833.833 0 0 0 1.667 0v-.625a.206.206 0 0 0-.128-.193.209.209 0 0 0-.08-.016h-1.25a.208.208 0 0 0-.209.209v.625z"/>
  <path fill="currentColor" d="M12.5 12.167a4.583 4.583 0 1 0 0-9.165 4.583 4.583 0 0 0 0 9.165zm0-7.5a2.917 2.917 0 1 1 0 5.833 2.917 2.917 0 0 1 0-5.833z"/>
</svg>
