<svg xmlns="http://www.w3.org/2000/svg" fill="none" viewBox="0 0 20 20">
  <path fill="currentColor" d="M17.143 17.143H2.857a1.429 1.429 0 0 0 0 2.857h14.286a1.428 1.428 0 1 0 0-2.857z"/>
  <path fill="currentColor" d="M2.931 14.849a1.429 1.429 0 0 0 1.918-.638l1.197-2.388a.714.714 0 0 1 .638-.394h6.632a.715.715 0 0 1 .638.394l1.197 2.388a1.428 1.428 0 0 0 1.92.635 1.43 1.43 0 0 0 .635-1.92L11.823 1.203A1.98 1.98 0 0 0 10 0a1.949 1.949 0 0 0-1.787 1.126L2.294 12.93a1.429 1.429 0 0 0 .637 1.918zM9.68 4.572a.356.356 0 0 1 .64-.003l1.746 3.485a.355.355 0 0 1-.32.518H8.253a.357.357 0 0 1-.32-.518L9.68 4.572z"/>
</svg>
