<svg xmlns="http://www.w3.org/2000/svg" fill="none" viewBox="0 0 20 20">
  <path fill="currentColor" d="M17.92 10.122a2.014 2.014 0 0 0-.284-1.715 1.874 1.874 0 0 0-.655-.576 1.789 1.789 0 0 0-.833-.206h-3.76a.814.814 0 0 1-.406-.11.858.858 0 0 1-.306-.3.906.906 0 0 1-.047-.847l.962-2.105c.088-.273.109-.565.06-.85a1.74 1.74 0 0 0-.343-.772 1.672 1.672 0 0 0-.6-.485 1.6 1.6 0 0 0-1.477.052c-.226.127-.42.307-.568.525L6.37 7.605a.856.856 0 0 1-.3.273.816.816 0 0 1-.388.098.306.306 0 0 0-.221.096.334.334 0 0 0-.092.23v7.955c0 .066.018.13.052.187.033.056.082.1.138.13C8.051 17.833 8.88 18 10.908 18c.235 0 1.564-.014 2.05-.014 1.805 0 3.006-1.093 3.675-3.36l1.28-4.478.006-.026z"/>
  <path fill="currentColor" d="M4.358 7.977H4.34a1.066 1.066 0 0 0-.342-.63.986.986 0 0 0-.65-.25H2.336a.33.33 0 0 0-.238.104.36.36 0 0 0-.099.248v9.844a.36.36 0 0 0 .099.248.33.33 0 0 0 .238.103h1.01a.99.99 0 0 0 .715-.309c.19-.197.296-.466.296-.745V7.977z"/>
</svg>
