<svg xmlns="http://www.w3.org/2000/svg" fill="none" viewBox="0 0 20 20">
  <path fill="currentColor" d="M20 4.875A1.878 1.878 0 0 0 18.125 3H1.875A1.877 1.877 0 0 0 0 4.875v9.167a1.878 1.878 0 0 0 1.875 1.875h.255a.208.208 0 0 1 .178.316l-.494.822a1.043 1.043 0 0 0 1.788 1.073l1.205-2.009a.416.416 0 0 1 .36-.202h9.666a.417.417 0 0 1 .358.202l1.205 2.009a1.043 1.043 0 0 0 1.787-1.073l-.494-.822a.208.208 0 0 1 .18-.316h.254A1.878 1.878 0 0 0 20 14.042V4.875zm-2.083 8.542a.416.416 0 0 1-.417.416h-15a.417.417 0 0 1-.417-.416V5.5a.417.417 0 0 1 .417-.417h15a.417.417 0 0 1 .417.417v7.917z"/>
</svg>
