<svg xmlns="http://www.w3.org/2000/svg" fill="none" viewBox="0 0 20 20">
  <path fill="currentColor" d="M9.544 2.5a1.82 1.82 0 0 0-1.141.407L4.28 6.252H2.497c-.662.001-1.297.278-1.765.77A2.7 2.7 0 0 0 0 8.88v2.251a2.7 2.7 0 0 0 .732 1.856c.468.493 1.103.77 1.765.77H4.28l4.137 3.345a1.788 1.788 0 0 0 1.956.196c.311-.162.574-.412.757-.722a2.04 2.04 0 0 0 .283-1.032V4.466a2.02 2.02 0 0 0-.547-1.39A1.825 1.825 0 0 0 9.544 2.5z"/>
  <path fill="currentColor" d="m18.277 10.005 1.382-1.456a1.16 1.16 0 0 0 .287-.788 1.155 1.155 0 0 0-.313-.776 1.045 1.045 0 0 0-.738-.33 1.041 1.041 0 0 0-.748.303l-1.384 1.454-1.384-1.454a1.04 1.04 0 0 0-.748-.302 1.045 1.045 0 0 0-.738.33 1.154 1.154 0 0 0-.313.775 1.16 1.16 0 0 0 .287.788l1.383 1.456-1.383 1.455c-.105.103-.19.228-.248.366a1.176 1.176 0 0 0 .221 1.254c.102.107.223.191.356.248a1.025 1.025 0 0 0 .836-.016c.131-.061.25-.15.347-.26l1.384-1.455 1.384 1.454c.098.11.216.2.348.261a1.026 1.026 0 0 0 1.192-.232c.101-.107.181-.234.235-.374a1.179 1.179 0 0 0-.015-.88 1.127 1.127 0 0 0-.248-.366l-1.382-1.456z"/>
</svg>
