<svg xmlns="http://www.w3.org/2000/svg" fill="none" viewBox="0 0 32 32">
  <path fill="currentColor" d="M28.96 7H9.119a3.055 3.055 0 0 0-2.15.878l-6.078 6A2.98 2.98 0 0 0 0 15.999c0 .795.32 1.558.89 2.121l6.078 6a3.05 3.05 0 0 0 2.15.88h19.843a3.06 3.06 0 0 0 2.149-.879A2.98 2.98 0 0 0 32 22V10a2.98 2.98 0 0 0-.89-2.121A3.06 3.06 0 0 0 28.96 7zm-14.243 7.06a1.498 1.498 0 0 1-.464-1.066 1.484 1.484 0 0 1 .446-1.074 1.52 1.52 0 0 1 1.088-.438 1.538 1.538 0 0 1 1.08.458l1.606 1.584a.507.507 0 0 0 .553.109.505.505 0 0 0 .164-.109l1.605-1.584a1.52 1.52 0 0 1 1.08-.458 1.538 1.538 0 0 1 1.088.438 1.5 1.5 0 0 1 .445 1.074 1.485 1.485 0 0 1-.463 1.066l-1.607 1.586a.5.5 0 0 0-.11.546.5.5 0 0 0 .11.162l1.607 1.586a1.502 1.502 0 0 1 .463 1.066 1.482 1.482 0 0 1-.445 1.074 1.52 1.52 0 0 1-1.088.438 1.536 1.536 0 0 1-1.08-.458l-1.605-1.586a.514.514 0 0 0-.717 0l-1.607 1.586a1.53 1.53 0 0 1-2.13-.017 1.49 1.49 0 0 1-.02-2.103l1.607-1.586a.5.5 0 0 0 .11-.546.5.5 0 0 0-.11-.162l-1.606-1.586z"/>
</svg>
