<svg xmlns="http://www.w3.org/2000/svg" fill="none" viewBox="0 0 16 16">
  <path fill="currentColor" d="M16 8.182a.727.727 0 0 0-.727-.727h-2a.182.182 0 0 1-.182-.182v-2a1.09 1.09 0 0 0-1.09-1.091H9.817a1.09 1.09 0 0 0-1.09 1.09v2a.182.182 0 0 1-.182.183h-.728a.182.182 0 0 1-.182-.182V3.09A1.09 1.09 0 0 0 6.546 2H4.364a1.09 1.09 0 0 0-1.091 1.09v4.183a.182.182 0 0 1-.182.182H.727a.727.727 0 1 0 0 1.454h2.364a.182.182 0 0 1 .182.182v4.182a1.09 1.09 0 0 0 1.09 1.09h2.183a1.09 1.09 0 0 0 1.09-1.09V9.09a.182.182 0 0 1 .182-.182h.728a.182.182 0 0 1 .181.182v2a1.091 1.091 0 0 0 1.091 1.09H12a1.09 1.09 0 0 0 1.091-1.09v-2a.182.182 0 0 1 .182-.182h2A.727.727 0 0 0 16 8.182z"/>
</svg>
