<svg xmlns="http://www.w3.org/2000/svg" fill="none" viewBox="0 0 17 16">
  <path fill="currentColor" d="M14.861 3.597H1.147c-.303 0-.594-.11-.808-.307a1.009 1.009 0 0 1-.335-.743c0-.278.12-.545.335-.742.214-.197.505-.308.808-.308H14.86c.303 0 .594.111.808.308.214.197.335.464.335.742 0 .279-.12.546-.335.743a1.196 1.196 0 0 1-.808.307z"/>
  <path fill="currentColor" d="M14.861 9.312H1.147c-.303 0-.594-.111-.808-.308a1.009 1.009 0 0 1-.335-.742c0-.279.12-.546.335-.743.214-.197.505-.307.808-.307H14.86c.303 0 .594.11.808.307.214.197.335.464.335.743 0 .278-.12.545-.335.742a1.196 1.196 0 0 1-.808.308z"/>
  <path fill="currentColor" d="M14.861 15.026H1.147c-.303 0-.594-.11-.808-.307a1.009 1.009 0 0 1-.335-.743c0-.279.12-.546.335-.742.214-.197.505-.308.808-.308H14.86c.303 0 .594.11.808.308.214.197.335.463.335.742 0 .278-.12.546-.335.742a1.196 1.196 0 0 1-.808.308z"/>
</svg>
