<svg xmlns="http://www.w3.org/2000/svg" fill="none" viewBox="0 0 16 16">
  <path fill="currentColor" d="M11.429 3.429V1.143A1.143 1.143 0 0 0 10.286 0H1.143A1.143 1.143 0 0 0 0 1.143v9.143a1.143 1.143 0 0 0 1.143 1.143h2.286V4.57A1.143 1.143 0 0 1 4.57 3.43h6.858z"/>
  <path fill="currentColor" d="M14.857 4.571H5.714a1.143 1.143 0 0 0-1.143 1.143v9.143A1.143 1.143 0 0 0 5.714 16h9.143A1.143 1.143 0 0 0 16 14.857V5.714a1.143 1.143 0 0 0-1.143-1.143zm-1.143 5.715a.571.571 0 0 1-.571.571h-2.286v2.286a.571.571 0 1 1-1.143 0v-2.286H7.43a.571.571 0 1 1 0-1.143h2.285V7.43a.571.571 0 0 1 1.143 0v2.285h2.286c.315 0 .571.256.571.572z"/>
</svg>
