<svg xmlns="http://www.w3.org/2000/svg" fill="none" viewBox="0 0 16 16">
  <path fill="currentColor" d="m14.948 6.508-.845-.3a.917.917 0 0 1-.52-1.257l.384-.809a1.584 1.584 0 0 0-2.11-2.11l-.808.385a.917.917 0 0 1-1.257-.521l-.3-.844a1.584 1.584 0 0 0-2.984 0l-.3.844a.917.917 0 0 1-1.257.52l-.808-.384a1.584 1.584 0 0 0-2.11 2.11l.383.81a.917.917 0 0 1-.52 1.257l-.844.3a1.583 1.583 0 0 0 0 2.983l.844.3a.916.916 0 0 1 .52 1.257l-.384.809a1.584 1.584 0 0 0 2.11 2.11l.81-.384a.915.915 0 0 1 1.256.52l.3.844a1.584 1.584 0 0 0 2.984 0l.3-.844a.916.916 0 0 1 1.257-.52l.809.384a1.584 1.584 0 0 0 2.11-2.11l-.384-.81a.915.915 0 0 1 .52-1.256l.844-.3a1.583 1.583 0 0 0 0-2.984zM8 11.19a3.286 3.286 0 0 1-2.96-1.963 3.209 3.209 0 0 1 1.733-4.188 3.245 3.245 0 0 1 4.187 1.734 3.21 3.21 0 0 1-1.733 4.187c-.39.16-.807.238-1.227.23z"/>
</svg>
