<svg xmlns="http://www.w3.org/2000/svg" fill="none" viewBox="0 0 16 16">
  <path fill="currentColor" d="M0 3.667a3.667 3.667 0 1 0 7.333 0 3.667 3.667 0 0 0-7.333 0z"/>
  <path fill="currentColor" d="M6.494 14.287a.168.168 0 0 0-.047-.244L4.68 12.964a.167.167 0 0 0-.149-.013L.105 14.698a.168.168 0 0 0-.105.155v.814A.333.333 0 0 0 .333 16h4.792a.165.165 0 0 0 .134-.067l1.235-1.646z"/>
  <path fill="currentColor" d="M11.42 13.147a.166.166 0 0 0-.21-.083l-3.519 1.333a.172.172 0 0 0-.074.056l-.959 1.28a.166.166 0 0 0 .133.267h5.734a.166.166 0 0 0 .15-.239l-1.255-2.614z"/>
  <path fill="currentColor" d="M3.229 12.39a.166.166 0 0 0 .025-.297l-2.294-1.4a.166.166 0 0 0-.087-.026h-.54A.333.333 0 0 0 0 11v2.42a.167.167 0 0 0 .228.154l3-1.183z"/>
  <path fill="currentColor" d="M12.462 12.59a.166.166 0 0 0-.091.227l1.484 3.088a.168.168 0 0 0 .15.095h1.662a.333.333 0 0 0 .333-.333v-4.178a.167.167 0 0 0-.226-.156l-3.312 1.256z"/>
  <path fill="currentColor" d="M11.608 11.763a.166.166 0 0 0 .157.022l2.121-.805a.163.163 0 0 0 .046-.276.162.162 0 0 0-.103-.037.162.162 0 0 1-.162-.162V6.848a.164.164 0 0 1 .07-.133l1.914-1.368a.834.834 0 0 0-.969-1.357l-.749.536a.166.166 0 0 1-.263-.133v-1.06a.835.835 0 0 0-1.67 0V6.13a.167.167 0 0 1-.277.126l-1.008-.882a.833.833 0 1 0-1.097 1.254l2.325 2.035a.167.167 0 0 1 .057.125V10.5a.167.167 0 0 1-.167.167h-1.22a.167.167 0 0 0-.098.301l1.093.795z"/>
  <path fill="currentColor" d="M7.315 13.4a.17.17 0 0 0 .146.014l2.814-1.067a.165.165 0 0 0 .095-.22.167.167 0 0 0-.055-.07l-1.871-1.36a.165.165 0 0 0-.099-.03H3.43a.166.166 0 0 0-.154.227.166.166 0 0 0 .068.081L7.315 13.4z"/>
</svg>
