<svg xmlns="http://www.w3.org/2000/svg" fill="none" viewBox="0 0 16 16">
  <path fill="currentColor" d="M11.675 12.333a.667.667 0 0 0-.667.667v.333a.333.333 0 0 1-.334.333h-3.67a.334.334 0 0 1-.333-.333V2.667a.333.333 0 0 1 .334-.334h3.67a.334.334 0 0 1 .333.334v.666a.667.667 0 0 0 1.334 0V1.667A.666.666 0 0 0 11.675 1H6.67V.333a.333.333 0 0 0-.405-.325L.262 1.34A.334.334 0 0 0 0 1.667v12.666a.333.333 0 0 0 .262.326l6.004 1.333a.337.337 0 0 0 .405-.326v-.667h5.004a.667.667 0 0 0 .667-.667V13a.667.667 0 0 0-.667-.666zm-6.672-4a1 1 0 1 1-1.998 0 1 1 0 0 1 1.998 0z"/>
  <path fill="currentColor" d="m15.703 7.779-3.252-2.167a.667.667 0 0 0-1.037.555v1.166H8.662a1.001 1.001 0 1 0 0 2h2.752V10.5a.667.667 0 0 0 1.037.555l3.252-2.167a.666.666 0 0 0 0-1.11z"/>
</svg>
