<svg xmlns="http://www.w3.org/2000/svg" fill="none" viewBox="0 0 16 16">
  <path fill="currentColor" d="m15.055 12.578-5.93-11.11A1.255 1.255 0 0 0 8.656.98a1.288 1.288 0 0 0-1.314 0c-.198.117-.36.286-.467.487L.945 12.577A1.225 1.225 0 0 0 .983 13.8c.113.183.273.334.463.44.19.105.405.16.623.16h11.862c.218 0 .433-.055.623-.16.19-.106.35-.257.463-.44a1.228 1.228 0 0 0 .038-1.223zm-7.69-7.206c0-.165.067-.324.186-.44a.64.64 0 0 1 .898 0 .616.616 0 0 1 .185.44v3.734a.616.616 0 0 1-.185.44.64.64 0 0 1-.898 0 .617.617 0 0 1-.186-.44V5.372zm.667 7.164h-.018a.98.98 0 0 1-.67-.267.943.943 0 0 1-.296-.648.903.903 0 0 1 .256-.665.935.935 0 0 1 .663-.287h.018c.25 0 .49.095.67.265.18.17.287.402.297.648a.902.902 0 0 1-.255.667.936.936 0 0 1-.665.287z"/>
</svg>
