<svg xmlns="http://www.w3.org/2000/svg" fill="none" viewBox="0 0 16 16">
  <path fill="currentColor" d="M15 5a1 1 0 0 1-1-1V3a1 1 0 0 0-1-1h-1a1 1 0 1 1 0-2h2c.55 0 1.021.196 1.413.588C15.805.979 16 1.45 16 2v2a1 1 0 0 1-1 1zM1 5a1 1 0 0 1-1-1V2C0 1.45.196.98.588.588A1.923 1.923 0 0 1 2 0h2a1 1 0 1 1 0 2H3a1 1 0 0 0-1 1v1a1 1 0 0 1-1 1zm11 11a1 1 0 1 1 0-2h1a1 1 0 0 0 1-1v-1a1 1 0 1 1 2 0v2c0 .55-.195 1.021-.587 1.413A1.928 1.928 0 0 1 14 16h-2zM2 16c-.55 0-1.02-.196-1.412-.587A1.927 1.927 0 0 1 0 14v-2a1 1 0 1 1 2 0v1a1 1 0 0 0 1 1h1a1 1 0 1 1 0 2H2z"/>
  <path fill="currentColor" fill-rule="evenodd" d="M5 3h6a2 2 0 0 1 2 2v6a2 2 0 0 1-2 2H5a2 2 0 0 1-2-2V5a2 2 0 0 1 2-2zm0 1h6a1 1 0 0 1 1 1v6a1 1 0 0 1-1 1H5a1 1 0 0 1-1-1V5a1 1 0 0 1 1-1z" clip-rule="evenodd"/>
</svg>
