<svg xmlns="http://www.w3.org/2000/svg" fill="none" viewBox="0 0 16 16">
  <path fill="currentColor" d="M14.3 5.6a.866.866 0 0 0-.322-.334.887.887 0 0 0-.45-.123h-3.492a.294.294 0 0 1-.205-.084.283.283 0 0 1-.085-.202v-4a.847.847 0 0 0-.17-.508.888.888 0 0 0-.989-.302.871.871 0 0 0-.433.324l-6.4 9.143a.847.847 0 0 0 .268 1.22.89.89 0 0 0 .45.123h3.492c.077 0 .15.03.205.084a.283.283 0 0 1 .086.202v4c0 .183.06.361.17.508a.874.874 0 0 0 .702.349.883.883 0 0 0 .72-.371l6.4-9.143A.851.851 0 0 0 14.3 5.6z"/>
</svg>
