<svg xmlns="http://www.w3.org/2000/svg" fill="none" viewBox="0 0 16 16">
  <path fill="currentColor" d="M8.533 5.466A.582.582 0 0 0 7.4 5.441L6.333 7.777a.167.167 0 0 1-.28.037l-.728-.876a.775.775 0 0 0-1.311.102L2.357 9.8a.333.333 0 0 0 .286.504h7.332a.334.334 0 0 0 .31-.457l-1.752-4.38z"/>
  <path fill="currentColor" d="M2.643 3.666a1.333 1.333 0 1 0 2.666 0 1.333 1.333 0 0 0-2.666 0z"/>
  <path fill="currentColor" d="M11.333 12.666a1.334 1.334 0 0 0 1.333-1.333v-10A1.333 1.333 0 0 0 11.333 0h-10A1.333 1.333 0 0 0 0 1.333v10a1.333 1.333 0 0 0 1.333 1.333h10zm-10-11a.333.333 0 0 1 .334-.333h9.332a.333.333 0 0 1 .334.334v9.332a.333.333 0 0 1-.334.334H1.667a.333.333 0 0 1-.334-.334V1.667z"/>
  <path fill="currentColor" d="M15.994 6.156a1.334 1.334 0 0 0-1.208-1.448l-.667-.06A.666.666 0 1 0 14 5.976l.334.029a.333.333 0 0 1 .301.363l-.726 7.964a.333.333 0 0 1-.362.302l-8.962-.816a.667.667 0 1 0-.118 1.327l9.294.85a1.335 1.335 0 0 0 1.45-1.208l.784-8.63z"/>
</svg>
