<svg xmlns="http://www.w3.org/2000/svg" fill="none" viewBox="0 0 16 16">
  <path fill="currentColor" fill-rule="evenodd" d="M3.137 5.255a2.118 2.118 0 1 1 4.236 0 2.118 2.118 0 0 1-4.236 0zm2.118-.235a.235.235 0 1 0 0 .47.235.235 0 0 0 0-.47z" clip-rule="evenodd"/>
  <path fill="currentColor" fill-rule="evenodd" d="M16 2.51A2.51 2.51 0 0 0 13.49 0H2.51A2.51 2.51 0 0 0 0 2.51v10.98A2.51 2.51 0 0 0 2.51 16h10.98A2.51 2.51 0 0 0 16 13.49V2.51zM2.51 1.882a.627.627 0 0 0-.628.628v10.98c0 .235.129.439.319.547l8.27-8.271a.941.941 0 0 1 1.332 0l2.315 2.315V2.51a.628.628 0 0 0-.628-.628H2.51zm11.608 8.86-2.98-2.98-6.356 6.356h8.708c.347 0 .628-.281.628-.628v-2.747z" clip-rule="evenodd"/>
</svg>
