<svg xmlns="http://www.w3.org/2000/svg" fill="none" viewBox="0 0 16 16">
  <path fill="currentColor" fill-rule="evenodd" d="M1.867 9.333a.8.8 0 0 1 .8-.8h4a.8.8 0 0 1 .8.8v4a.8.8 0 1 1-1.6 0v-3.2h-3.2a.8.8 0 0 1-.8-.8z" clip-rule="evenodd"/>
  <path fill="currentColor" fill-rule="evenodd" d="M7.232 8.768a.8.8 0 0 1 0 1.131l-4.666 4.667a.8.8 0 0 1-1.132-1.132l4.667-4.666a.8.8 0 0 1 1.131 0z" clip-rule="evenodd"/>
  <path fill="currentColor" fill-rule="evenodd" d="M9.333 1.867a.8.8 0 0 1 .8.8v3.2h3.2a.8.8 0 1 1 0 1.6h-4a.8.8 0 0 1-.8-.8v-4a.8.8 0 0 1 .8-.8z" clip-rule="evenodd"/>
  <path fill="currentColor" fill-rule="evenodd" d="M14.566 1.434a.8.8 0 0 1 0 1.132L9.899 7.232a.8.8 0 1 1-1.131-1.131l4.666-4.667a.8.8 0 0 1 1.132 0z" clip-rule="evenodd"/>
</svg>
