<svg xmlns="http://www.w3.org/2000/svg" fill="none" viewBox="0 0 16 16">
  <g clip-path="url(#a)">
    <path fill="currentColor" fill-rule="evenodd" d="M14.493.794a1.5 1.5 0 0 1 .177.706v9.172a2.734 2.734 0 0 1-2.667 2.667 2.667 2.667 0 1 1 0-5.334h.833a.167.167 0 0 0 .167-.167V4.99a.166.166 0 0 0-.23-.154L7.438 7.02a.165.165 0 0 0-.103.154v6.163a2.734 2.734 0 0 1-2.668 2.667 2.668 2.668 0 0 1 0-5.334h.834a.167.167 0 0 0 .167-.167V3.955A1.494 1.494 0 0 1 6.6 2.566L12.603.111a1.5 1.5 0 0 1 1.89.683zM7.485 5.18a.167.167 0 0 0 .08-.012l5.334-2.184a.166.166 0 0 0 .104-.154v-.585a.333.333 0 0 0-.46-.308l-5 2.046a.333.333 0 0 0-.208.309v.722a.165.165 0 0 0 .074.138.167.167 0 0 0 .076.028zm4.53 4.125 1.325.943a.515.515 0 0 1 0 .835l-1.324.943a.489.489 0 0 1-.713-.156.51.51 0 0 1-.07-.262V9.721a.511.511 0 0 1 .265-.45.489.489 0 0 1 .518.033z" clip-rule="evenodd"/>
  </g>
  <defs>
    <clipPath id="a">
      <path fill="currentColor" d="M0 0h16v16H0z"/>
    </clipPath>
  </defs>
</svg>
