<svg xmlns="http://www.w3.org/2000/svg" fill="none" viewBox="0 0 16 16">
  <g clip-path="url(#a)">
    <path fill="currentColor" fill-rule="evenodd" d="M14.67 1.5A1.5 1.5 0 0 0 12.603.11L6.6 2.567a1.494 1.494 0 0 0-.933 1.388v6.547a.167.167 0 0 1-.167.167h-.834a2.668 2.668 0 0 0 0 5.334 2.734 2.734 0 0 0 2.668-2.667V7.173a.165.165 0 0 1 .103-.154l5.335-2.183a.167.167 0 0 1 .23.154v2.848a.167.167 0 0 1-.167.167h-.833a2.667 2.667 0 0 0 0 5.334 2.734 2.734 0 0 0 2.667-2.667V1.5zM7.565 5.167a.167.167 0 0 1-.23-.154v-.722a.333.333 0 0 1 .207-.309l5.001-2.046a.334.334 0 0 1 .46.308v.585a.167.167 0 0 1-.104.154L7.566 5.167zm3.397 6.267a.57.57 0 0 0 1.138 0v-1.422a.57.57 0 1 0-1.138 0v1.422zm1.992.57a.57.57 0 0 1-.57-.57v-1.422a.57.57 0 0 1 1.139 0v1.422c0 .314-.255.57-.569.57z" clip-rule="evenodd"/>
  </g>
  <defs>
    <clipPath id="a">
      <path fill="currentColor" d="M0 0h16v16H0z"/>
    </clipPath>
  </defs>
</svg>
