<svg xmlns="http://www.w3.org/2000/svg" fill="none" viewBox="0 0 16 16">
  <path fill="currentColor" d="M14.667 1.5A1.499 1.499 0 0 0 12.601.11l-6 2.455a1.494 1.494 0 0 0-.934 1.388V10.5a.167.167 0 0 1-.167.166h-.833a2.667 2.667 0 0 0 0 5.334 2.733 2.733 0 0 0 2.667-2.667V7.172a.165.165 0 0 1 .103-.154l5.334-2.183a.167.167 0 0 1 .23.154v2.847a.167.167 0 0 1-.167.167H12a2.667 2.667 0 1 0 0 5.333 2.733 2.733 0 0 0 2.666-2.666V1.5zM7.564 5.165a.167.167 0 0 1-.23-.154V4.29a.333.333 0 0 1 .207-.309l5-2.046a.333.333 0 0 1 .46.309v.584a.167.167 0 0 1-.104.154L7.564 5.166z"/>
</svg>
