<svg xmlns="http://www.w3.org/2000/svg" fill="none" viewBox="0 0 16 16">
  <g fill="currentColor" clip-path="url(#a)">
    <path d="M0 4h1.656l3.01 5.276V4h1.471v7.557h-1.58L1.472 6.19v5.368H0V4ZM8.884 5.313v4.932h1.456c.745 0 1.265-.368 1.559-1.103.16-.403.24-.883.24-1.44 0-.77-.12-1.359-.363-1.77-.24-.413-.718-.62-1.436-.62H8.884ZM10.607 4c.468.007.858.062 1.169.164.53.174.958.494 1.287.959.263.376.442.783.538 1.22.095.438.143.855.143 1.251 0 1.005-.201 1.856-.605 2.553-.546.94-1.39 1.41-2.532 1.41H7.35V4h3.256ZM16.122 11.557h-1.569V4h1.57v7.557Z"/>
  </g>
  <defs>
    <clipPath id="a">
      <path fill="#fff" d="M0 0h16v16H0z"/>
    </clipPath>
  </defs>
</svg>
