<svg xmlns="http://www.w3.org/2000/svg" fill="none" viewBox="0 0 16 16">
  <path fill="currentColor" d="M15.997 5.84c-.44-1.666-1.466-3.147-2.916-4.206A8.63 8.63 0 0 0 8 0a8.63 8.63 0 0 0-5.082 1.634C1.468 2.694.442 4.174.003 5.841c-.012.182.015.365.08.537.066.172.168.33.3.465l3.675 2.855a.168.168 0 0 1 .061.094.16.16 0 0 1-.014.11.923.923 0 0 0-.107.431v2.743c0 .034.01.067.03.095a.18.18 0 0 0 .083.063.195.195 0 0 0 .199-.037l3.836-3.575a.167.167 0 0 0 .05-.088.16.16 0 0 0-.01-.098.173.173 0 0 0-.068-.076.192.192 0 0 0-.102-.029H5.837a.17.17 0 0 1-.074-.017.157.157 0 0 1-.057-.047.6.6 0 0 0-.11-.114L2.777 6.966a.17.17 0 0 1-.059-.087.159.159 0 0 1 .005-.102.172.172 0 0 1 .066-.081c.031-.02.068-.03.105-.03H13.11c.037 0 .074.01.104.03.031.02.054.048.067.08a.159.159 0 0 1 .005.103.17.17 0 0 1-.058.086c-.803.629-2.608 2.05-2.929 2.322a.19.19 0 0 1-.123.044h-.132a.194.194 0 0 0-.13.05L4.05 14.848a.166.166 0 0 0-.054.12V15c0 .265.114.52.315.707.202.187.475.293.76.293h1.52a.19.19 0 0 0 .13-.05l5.097-4.746a.167.167 0 0 0 .053-.12v-.748a.904.904 0 0 0-.08-.366.16.16 0 0 1-.008-.105.168.168 0 0 1 .06-.09l3.773-2.923c.133-.136.236-.295.302-.47.065-.173.092-.358.079-.541z"/>
  <path fill="currentColor" d="M8.498 15.707a.167.167 0 0 0-.05.087.16.16 0 0 0 .01.098.173.173 0 0 0 .068.077c.03.018.066.028.102.028h2.17c.285 0 .557-.105.758-.292a.968.968 0 0 0 .316-.705v-2.024a.162.162 0 0 0-.03-.095.18.18 0 0 0-.082-.063.196.196 0 0 0-.106-.01.187.187 0 0 0-.093.047l-3.063 2.852z"/>
</svg>
