<svg xmlns="http://www.w3.org/2000/svg" fill="none" viewBox="0 0 16 16">
  <path fill="currentColor" d="M0 8a8 8 0 1 0 8-8 8.009 8.009 0 0 0-8 8zm3.478-.348a.696.696 0 0 1 .696-.695h2.609a.174.174 0 0 0 .174-.174v-2.61a.696.696 0 0 1 .695-.695h.696a.696.696 0 0 1 .695.696v2.609a.174.174 0 0 0 .174.174h2.61a.696.696 0 0 1 .695.695v.696a.696.696 0 0 1-.696.695H9.217a.174.174 0 0 0-.174.174v2.61a.696.696 0 0 1-.695.695h-.696a.696.696 0 0 1-.695-.696V9.217a.174.174 0 0 0-.174-.174h-2.61a.696.696 0 0 1-.695-.695v-.696z"/>
</svg>
