<svg xmlns="http://www.w3.org/2000/svg" fill="none" viewBox="0 0 16 16">
  <path fill="currentColor" d="M16 11.4V6.733a1 1 0 0 0-1-1h-.17a.166.166 0 0 0-.166.172v.162a4.667 4.667 0 0 1-9.333 0v-.162a.166.166 0 0 0-.162-.172H1a1 1 0 0 0-1 1V11.4a1 1 0 0 0 1 1h14a1 1 0 0 0 1-1zM2.333 9.567a.5.5 0 1 1-1 0V7.9a.5.5 0 0 1 1 0v1.667zm2 0a.5.5 0 1 1-1 0V7.9a.5.5 0 0 1 1 0v1.667z"/>
  <path fill="currentColor" d="M1 13.733a.667.667 0 1 0 1.333 0v-.5a.166.166 0 0 0-.166-.166h-1a.165.165 0 0 0-.154.102.166.166 0 0 0-.013.064v.5z"/>
  <path fill="currentColor" d="M13.667 13.733a.667.667 0 1 0 1.333 0v-.5a.167.167 0 0 0-.167-.166h-1a.164.164 0 0 0-.118.048.166.166 0 0 0-.048.118v.5z"/>
  <path fill="currentColor" d="M10 9.733A3.667 3.667 0 1 0 10 2.4a3.667 3.667 0 0 0 0 7.333zm0-6A2.333 2.333 0 1 1 10 8.4a2.333 2.333 0 0 1 0-4.667z"/>
</svg>
