<svg xmlns="http://www.w3.org/2000/svg" fill="none" viewBox="0 0 16 16">
  <g fill="currentColor" clip-path="url(#a)">
    <path d="M1.667 4H13a1.666 1.666 0 0 0 1.667-1.667v-.666A1.667 1.667 0 0 0 13 0H1.667A1.667 1.667 0 0 0 0 1.667v.666A1.667 1.667 0 0 0 1.667 4zm.76-2a.74.74 0 1 1 .455.685A.733.733 0 0 1 2.427 2zM5 2a.747.747 0 1 1 .74.74A.74.74 0 0 1 5 2z"/>
    <path d="M11.667 6.333a5.274 5.274 0 0 1 2.52.634.326.326 0 0 0 .48-.3v-.334A1.667 1.667 0 0 0 13 4.667H1.667A1.667 1.667 0 0 0 0 6.333V7a1.667 1.667 0 0 0 1.667 1.667h5.426a.333.333 0 0 0 .267-.14 5.333 5.333 0 0 1 4.307-2.194zm-5.18.334a.747.747 0 1 1-.462-.686.74.74 0 0 1 .462.686zm-2.58 0a.74.74 0 1 1-.456-.686.733.733 0 0 1 .456.686z"/>
    <path d="M0 11.667a1.667 1.667 0 0 0 1.667 1.666H6.16a.34.34 0 0 0 .32-.426 5.333 5.333 0 0 1 .2-3.127.327.327 0 0 0-.307-.447H1.667A1.667 1.667 0 0 0 0 11v.667zm2.427-.334a.74.74 0 1 1 .455.686.734.734 0 0 1-.455-.686z"/>
    <path d="M7.333 11.667a4.333 4.333 0 1 0 4.334-4.334 4.34 4.34 0 0 0-4.334 4.334zm2.567-1.06a.498.498 0 0 1 .35-.866.5.5 0 0 1 .357.159l.94.94a.166.166 0 0 0 .24 0l.94-.94a.5.5 0 0 1 .706.707l-.94.94a.168.168 0 0 0 0 .24l.94.94a.5.5 0 0 1-.706.706l-.94-.94a.168.168 0 0 0-.186-.037.166.166 0 0 0-.054.037l-.94.94a.5.5 0 0 1-.707-.706l.94-.94a.165.165 0 0 0 .051-.12.166.166 0 0 0-.051-.12l-.94-.94z"/>
  </g>
  <defs>
    <clipPath id="a">
      <path fill="currentColor" d="M0 0h16v16H0z"/>
    </clipPath>
  </defs>
</svg>
