<svg xmlns="http://www.w3.org/2000/svg" fill="none" viewBox="0 0 16 16">
  <path fill="currentColor" d="M13.714 13.714H2.286a1.143 1.143 0 1 0 0 2.286h11.428a1.143 1.143 0 1 0 0-2.286z"/>
  <path fill="currentColor" d="M2.345 11.879a1.143 1.143 0 0 0 1.534-.51l.958-1.91a.571.571 0 0 1 .51-.316h5.305a.572.572 0 0 1 .511.315l.958 1.911a1.146 1.146 0 0 0 1.888.233 1.145 1.145 0 0 0 .155-1.261L9.459.962A1.584 1.584 0 0 0 8 0a1.559 1.559 0 0 0-1.43.9l-4.735 9.445a1.143 1.143 0 0 0 .51 1.534zm5.399-8.222a.285.285 0 0 1 .512-.002l1.396 2.788a.285.285 0 0 1-.256.414H6.602a.286.286 0 0 1-.256-.414l1.398-2.786z"/>
</svg>
