<svg xmlns="http://www.w3.org/2000/svg" fill="none" viewBox="0 0 16 16">
  <path fill="currentColor" d="M14.335 8.097a1.611 1.611 0 0 0-.226-1.371 1.499 1.499 0 0 0-.524-.46 1.431 1.431 0 0 0-.667-.166H9.911a.651.651 0 0 1-.326-.087.686.686 0 0 1-.244-.241.724.724 0 0 1-.038-.678l.77-1.683a1.42 1.42 0 0 0-.226-1.299 1.337 1.337 0 0 0-.48-.387 1.28 1.28 0 0 0-1.182.041c-.18.102-.336.246-.454.42L5.095 6.085a.685.685 0 0 1-.24.218.653.653 0 0 1-.31.08.245.245 0 0 0-.177.076.267.267 0 0 0-.073.184v6.364a.29.29 0 0 0 .04.149c.028.045.066.08.112.104C6.44 14.267 7.103 14.4 8.727 14.4c.187 0 1.25-.011 1.64-.011 1.443 0 2.404-.875 2.94-2.688l1.024-3.583.005-.02z"/>
  <path fill="currentColor" d="M3.486 6.381h-.014a.853.853 0 0 0-.274-.503.789.789 0 0 0-.52-.2h-.809c-.071 0-.14.03-.19.083a.288.288 0 0 0-.079.198v7.875c0 .075.028.146.079.2.05.052.119.082.19.082h.809c.214 0 .42-.09.572-.248a.863.863 0 0 0 .236-.596v-6.89z"/>
</svg>
