<svg xmlns="http://www.w3.org/2000/svg" fill="none" viewBox="0 0 16 16">
  <path fill="currentColor" d="M16 3.9a1.502 1.502 0 0 0-1.5-1.5h-13A1.502 1.502 0 0 0 0 3.9v7.333a1.502 1.502 0 0 0 1.5 1.5h.204a.167.167 0 0 1 .167.17c0 .029-.01.058-.024.083l-.396.658a.834.834 0 0 0 1.43.858l.964-1.607a.333.333 0 0 1 .288-.162h7.734a.333.333 0 0 1 .286.162l.964 1.607a.833.833 0 0 0 1.43-.858l-.396-.658a.167.167 0 0 1 .06-.23.167.167 0 0 1 .084-.023h.204a1.502 1.502 0 0 0 1.501-1.5V3.9zm-1.667 6.833a.333.333 0 0 1-.333.334H2a.333.333 0 0 1-.333-.334V4.4A.333.333 0 0 1 2 4.067h12a.333.333 0 0 1 .333.333v6.333z"/>
</svg>
