<svg xmlns="http://www.w3.org/2000/svg" fill="none" viewBox="0 0 16 16">
  <path fill="currentColor" d="M7.668 2.875c-.31 0-.612.102-.858.29l-3.098 2.39h-1.34A1.878 1.878 0 0 0 .496 7.431v1.608a1.878 1.878 0 0 0 1.876 1.876h1.34l3.109 2.388a1.403 1.403 0 0 0 2.25-1.113V4.28a1.405 1.405 0 0 0-1.403-1.405z"/>
  <path fill="currentColor" d="M13.36 3.1a.805.805 0 1 0-1.133 1.14 5.623 5.623 0 0 1 0 7.99.803.803 0 0 0 .56 1.384.806.806 0 0 0 .573-.243 7.232 7.232 0 0 0 0-10.272z"/>
  <path fill="currentColor" d="M11.585 5.976a.805.805 0 0 0-1.326.91 2.374 2.374 0 0 1 0 2.697.804.804 0 1 0 1.326.91 3.984 3.984 0 0 0 0-4.517z"/>
</svg>
