<svg xmlns="http://www.w3.org/2000/svg" fill="none" viewBox="0 0 16 16">
  <path fill="currentColor" fill-rule="evenodd" d="M11.877 13.427a.62.62 0 0 1 0-.876l.674-.675a.62.62 0 0 1 .876.877l-.674.674a.62.62 0 0 1-.877 0z" clip-rule="evenodd"/>
  <path fill="currentColor" fill-rule="evenodd" d="M2.573 4.123a.62.62 0 0 1 0-.876l.674-.674a.62.62 0 1 1 .877.876l-.675.675a.62.62 0 0 1-.876 0z" clip-rule="evenodd"/>
  <path fill="currentColor" fill-rule="evenodd" d="M8.64 13.562a.62.62 0 0 1 0-.877l4.045-4.045a.62.62 0 0 1 .877.877l-4.045 4.045a.62.62 0 0 1-.876 0z" clip-rule="evenodd"/>
  <path fill="currentColor" fill-rule="evenodd" d="M2.438 7.36a.62.62 0 0 1 0-.877l4.045-4.045a.62.62 0 1 1 .877.877L3.314 7.359a.62.62 0 0 1-.877 0z" clip-rule="evenodd"/>
  <path fill="currentColor" fill-rule="evenodd" d="M5.742 13.36a.62.62 0 0 1 0-.877l6.741-6.741a.62.62 0 0 1 .877.876L6.618 13.36a.62.62 0 0 1-.876 0z" clip-rule="evenodd"/>
  <path fill="currentColor" fill-rule="evenodd" d="M2.64 10.258a.62.62 0 0 1 0-.876L9.382 2.64a.62.62 0 0 1 .876.877l-6.741 6.741a.62.62 0 0 1-.877 0z" clip-rule="evenodd"/>
  <path fill="currentColor" fill-rule="evenodd" d="M2.843 13.157a.62.62 0 0 1 0-.876l9.438-9.438a.62.62 0 0 1 .876.876L3.72 13.157a.62.62 0 0 1-.876 0z" clip-rule="evenodd"/>
</svg>
