<svg xmlns="http://www.w3.org/2000/svg" fill="none" viewBox="0 0 16 16">
  <path fill="currentColor" d="M10.571 4.571V2.857A.857.857 0 0 0 9.714 2H2.857A.857.857 0 0 0 2 2.857v6.857a.857.857 0 0 0 .857.857h1.714V5.43a.857.857 0 0 1 .858-.858h5.142z"/>
  <path fill="currentColor" d="M13.143 5.429H6.286a.857.857 0 0 0-.857.857v6.857a.857.857 0 0 0 .857.857h6.857a.857.857 0 0 0 .857-.857V6.286a.857.857 0 0 0-.857-.857zm-.857 4.285a.429.429 0 0 1-.429.429h-1.714v1.714a.429.429 0 0 1-.857 0v-1.714H7.57a.429.429 0 0 1 0-.857h1.715V7.57a.429.429 0 1 1 .857 0v1.715h1.714c.237 0 .429.192.429.428z"/>
</svg>
