<svg xmlns="http://www.w3.org/2000/svg" fill="none" viewBox="0 0 16 16">
  <path fill="currentColor" d="M13.881 7.069a.522.522 0 0 0-.404-.19H7.061a.522.522 0 0 1-.512-.418l-.145-.73a.522.522 0 0 0-.512-.417h-3.37a.522.522 0 0 0-.511.627l1.356 6.782a.522.522 0 0 0 .512.417h8.555a.522.522 0 0 0 .512-.417l1.043-5.217a.522.522 0 0 0-.108-.437z"/>
  <path fill="currentColor" d="M4.609 4.791a.522.522 0 0 0 .521-.522v-.887a.26.26 0 0 1 .261-.26h6.26a.26.26 0 0 1 .262.26v2.452a.522.522 0 0 0 1.043 0V3.122a1.044 1.044 0 0 0-1.043-1.044H5.13a1.043 1.043 0 0 0-1.043 1.044v1.147a.522.522 0 0 0 .522.522z"/>
</svg>
