<svg xmlns="http://www.w3.org/2000/svg" fill="none" viewBox="0 0 16 16">
  <path fill="currentColor" d="M2.5 3h2.25a.75.75 0 0 1 .75.75v.75a.5.5 0 0 0 1 0v-.75A1.75 1.75 0 0 0 4.75 2H2.5a.5.5 0 1 0 0 1z"/>
  <path fill="currentColor" d="M11.75 5.75h-7.5A2.25 2.25 0 0 0 2 8v4.96a1.028 1.028 0 0 0 .308.737c.197.195.464.304.742.303h.015c.974-.013 1.124-.3 2.095-2.18l.362-.697a1.26 1.26 0 0 1 1.083-.623h2.79a1.251 1.251 0 0 1 1.072.607c.16.307.3.58.426.824C11.796 13.681 11.96 14 12.93 14A1.066 1.066 0 0 0 14 12.94V8a2.25 2.25 0 0 0-2.25-2.25zm-6.125 3H5.25A.25.25 0 0 0 5 9v.375a.375.375 0 1 1-.75 0V9A.25.25 0 0 0 4 8.75h-.375a.375.375 0 0 1 0-.75H4a.25.25 0 0 0 .25-.25v-.375a.375.375 0 1 1 .75 0v.375a.25.25 0 0 0 .25.25h.375a.375.375 0 0 1 0 .75zm4.375 0a.5.5 0 1 1 0-1 .5.5 0 0 1 0 1zm1.25 1a.5.5 0 1 1 0-1 .5.5 0 0 1 0 1zm0-2a.5.5 0 1 1 0-1 .5.5 0 0 1 0 1zm1.25 1a.5.5 0 1 1 0-1 .5.5 0 0 1 0 1z"/>
</svg>
