<svg xmlns="http://www.w3.org/2000/svg" fill="none" viewBox="0 0 16 16">
  <path fill="currentColor" d="M13.475 4.059a.144.144 0 0 0 .144-.144v-.432a.432.432 0 0 0-.432-.433H5.695l-.104-.043-.773-.8a1.009 1.009 0 0 0-.726-.31h-1.69a1.174 1.174 0 0 0-1.174 1.174v7.327a1.008 1.008 0 0 0 1.009 1.009h.144a.144.144 0 0 0 .144-.144V5.788a1.729 1.729 0 0 1 1.729-1.729h9.22z"/>
  <path fill="currentColor" fill-rule="evenodd" d="M4.542 5.067h9.221a1.01 1.01 0 0 1 1.008 1.009v6.916A1.01 1.01 0 0 1 13.764 14h-9.22a1.01 1.01 0 0 1-1.01-1.008V6.075a1.01 1.01 0 0 1 1.01-1.009zm4.841 2.19c.334 0 .605.271.605.606v1.21h1.21a.605.605 0 0 1 0 1.21h-1.21v1.21a.605.605 0 1 1-1.21 0v-1.21h-1.21a.605.605 0 1 1 0-1.21h1.21v-1.21c0-.335.27-.605.605-.605z" clip-rule="evenodd"/>
</svg>
