<svg xmlns="http://www.w3.org/2000/svg" fill="none" viewBox="0 0 16 16">
  <path fill="currentColor" fill-rule="evenodd" d="M3.647 9.47c.357 0 .647.29.647.648v2.588h2.588a.647.647 0 1 1 0 1.294H3.647A.647.647 0 0 1 3 13.353v-3.235c0-.358.29-.647.647-.647z" clip-rule="evenodd"/>
  <path fill="currentColor" fill-rule="evenodd" d="M7.88 9.12a.647.647 0 0 1 0 .916L4.104 13.81a.647.647 0 0 1-.915-.915l3.774-3.774a.647.647 0 0 1 .915 0z" clip-rule="evenodd"/>
  <path fill="currentColor" fill-rule="evenodd" d="M9.47 3.647c0-.357.29-.647.648-.647h3.235c.357 0 .647.29.647.647v3.235a.647.647 0 0 1-1.294 0V4.294h-2.588a.647.647 0 0 1-.647-.647z" clip-rule="evenodd"/>
  <path fill="currentColor" fill-rule="evenodd" d="M13.81 3.19a.647.647 0 0 1 0 .915l-3.774 3.774a.647.647 0 0 1-.915-.915l3.774-3.774a.647.647 0 0 1 .915 0z" clip-rule="evenodd"/>
</svg>
