<svg xmlns="http://www.w3.org/2000/svg" fill="none" viewBox="0 0 16 16">
  <path fill="currentColor" fill-rule="evenodd" d="M3.54 9.578c0-.357.289-.647.646-.647h3.236c.357 0 .647.29.647.647v3.236a.647.647 0 0 1-1.294 0v-2.589H4.186a.647.647 0 0 1-.647-.647z" clip-rule="evenodd"/>
  <path fill="currentColor" fill-rule="evenodd" d="M7.88 9.12a.647.647 0 0 1 0 .916L4.104 13.81a.647.647 0 0 1-.915-.915l3.774-3.774a.647.647 0 0 1 .915 0z" clip-rule="evenodd"/>
  <path fill="currentColor" fill-rule="evenodd" d="M9.578 3.54c.358 0 .648.289.648.646v2.588h2.588a.647.647 0 1 1 0 1.295H9.578a.647.647 0 0 1-.647-.647V4.186c0-.357.29-.647.647-.647z" clip-rule="evenodd"/>
  <path fill="currentColor" fill-rule="evenodd" d="M13.81 3.19a.647.647 0 0 1 0 .915l-3.774 3.774a.647.647 0 0 1-.915-.915l3.774-3.774a.647.647 0 0 1 .915 0z" clip-rule="evenodd"/>
</svg>
