<svg xmlns="http://www.w3.org/2000/svg" fill="none" viewBox="0 0 16 16">
  <path fill="currentColor" fill-rule="evenodd" d="M13.847 1.69c.1.188.153.398.153.612v7.963a2.374 2.374 0 0 1-2.316 2.316 2.316 2.316 0 0 1 0-4.631h.724a.145.145 0 0 0 .145-.145V5.333a.144.144 0 0 0-.2-.134L7.72 7.094a.144.144 0 0 0-.09.134v5.35a2.374 2.374 0 0 1-2.315 2.316 2.316 2.316 0 0 1 0-4.632h.723a.145.145 0 0 0 .145-.144V4.434a1.297 1.297 0 0 1 .81-1.206l5.211-2.131a1.302 1.302 0 0 1 1.642.593zM7.762 5.496a.145.145 0 0 0 .07-.01l4.63-1.897a.144.144 0 0 0 .09-.133v-.507a.289.289 0 0 0-.398-.268L7.812 4.457a.29.29 0 0 0-.18.268v.627a.143.143 0 0 0 .064.12c.02.013.042.022.066.024zm3.934 3.582 1.15.818a.447.447 0 0 1 0 .725l-1.15.819a.424.424 0 0 1-.619-.135.444.444 0 0 1-.061-.228V9.44a.443.443 0 0 1 .23-.392.424.424 0 0 1 .45.03z" clip-rule="evenodd"/>
</svg>
