<svg xmlns="http://www.w3.org/2000/svg" fill="none" viewBox="0 0 16 16">
  <path fill="currentColor" d="M13 2.8a1.2 1.2 0 0 0-1.653-1.111l-4.8 1.964a1.195 1.195 0 0 0-.747 1.11v5.236a.133.133 0 0 1-.133.133H5A2.133 2.133 0 0 0 5 14.4a2.187 2.187 0 0 0 2.133-2.133v-4.93a.132.132 0 0 1 .083-.122l4.267-1.746a.133.133 0 0 1 .184.123V7.87a.133.133 0 0 1-.134.133h-.666a2.133 2.133 0 1 0 0 4.266A2.186 2.186 0 0 0 13 10.136V2.8zM7.317 5.732a.133.133 0 0 1-.184-.124v-.577a.267.267 0 0 1 .166-.247l4-1.637a.267.267 0 0 1 .368.247v.467a.133.133 0 0 1-.083.123L7.317 5.733z"/>
</svg>
