<svg xmlns="http://www.w3.org/2000/svg" fill="none" viewBox="0 0 16 16">
  <path fill="currentColor" d="M7.207 2.362a1.05 1.05 0 0 1 1.586 0l4.948 5.702c.59.68.107 1.738-.793 1.738H11v3.149A1.05 1.05 0 0 1 9.95 14H6.05A1.05 1.05 0 0 1 5 12.95V9.802H3.052c-.9 0-1.383-1.059-.793-1.738l4.948-5.702zm.906 1.353a.369.369 0 0 0-.051-.05A.152.152 0 0 0 8 3.65a.152.152 0 0 0-.062.015.149.149 0 0 0-.051.038l-3.427 4.2a.138.138 0 0 0-.03.075.171.171 0 0 0 .008.09.134.134 0 0 0 .052.06.154.154 0 0 0 .082.022H6.2a.45.45 0 0 1 .45.45v3.6c0 .083.067.15.15.15h2.4c.04 0 .077-.017.105-.045a.149.149 0 0 0 .045-.105V8.6a.45.45 0 0 1 .45-.45h1.995a.18.18 0 0 0 .09-.023.134.134 0 0 0 .053-.06.174.174 0 0 0 .014-.09.147.147 0 0 0-.037-.075L8.113 3.715z"/>
</svg>
