<svg xmlns="http://www.w3.org/2000/svg" fill="none" viewBox="0 0 16 16">
  <path fill="currentColor" d="M10.934 8.835a.479.479 0 0 0-.188-.163.58.58 0 0 0-.258-.06H5.511a.58.58 0 0 0-.257.06.48.48 0 0 0-.188.163.388.388 0 0 0 .008.44l2.488 3.514c.046.065.11.118.187.155a.581.581 0 0 0 .502 0 .485.485 0 0 0 .187-.155l2.488-3.513a.388.388 0 0 0 .008-.44z"/>
  <path fill="currentColor" d="M5.066 7.165a.48.48 0 0 0 .187.163.58.58 0 0 0 .259.06h4.977c.09 0 .18-.021.257-.06a.48.48 0 0 0 .188-.163.388.388 0 0 0-.008-.44L8.438 3.21a.485.485 0 0 0-.187-.155.58.58 0 0 0-.502 0 .485.485 0 0 0-.187.155L5.074 6.724a.388.388 0 0 0-.008.44z"/>
</svg>
