<svg xmlns="http://www.w3.org/2000/svg" fill="none" viewBox="0 0 16 16">
  <path fill="currentColor" d="M7.727 3c-.248 0-.489.086-.685.244L4.568 5.251h-1.07c-.397 0-.778.167-1.059.462A1.62 1.62 0 0 0 2 6.827v1.351c0 .418.158.818.44 1.114.28.295.66.462 1.058.462h1.07L7.05 11.76a1.073 1.073 0 0 0 1.174.118c.187-.097.344-.247.454-.433.11-.186.17-.4.17-.62V4.18c0-.313-.118-.613-.329-.834A1.095 1.095 0 0 0 7.727 3z"/>
  <path fill="currentColor" d="m12.966 7.503.83-.874a.696.696 0 0 0 .172-.472.693.693 0 0 0-.188-.466.627.627 0 0 0-.443-.197.625.625 0 0 0-.449.18l-.83.873-.83-.872a.625.625 0 0 0-.45-.181.627.627 0 0 0-.442.197.693.693 0 0 0-.188.466.696.696 0 0 0 .172.472l.83.874-.83.873a.677.677 0 0 0-.204.483.707.707 0 0 0 .188.489.64.64 0 0 0 .465.198.616.616 0 0 0 .459-.215l.83-.873.83.873c.06.066.13.12.209.156a.616.616 0 0 0 .715-.139.68.68 0 0 0 .188-.49.705.705 0 0 0-.204-.482l-.83-.873z"/>
</svg>
