<svg xmlns="http://www.w3.org/2000/svg" fill="none" viewBox="0 0 16 16">
  <path fill="currentColor" fill-rule="evenodd" d="M5.828 12.473a.96.96 0 0 1-.46.476.931.931 0 0 1-1.269-.428L1.102 6.368A.931.931 0 0 1 1.531 5.1a.944.944 0 0 1 1.268.428l2.157 4.408 2.14-4.408A.944.944 0 0 1 7.997 5a.944.944 0 0 1 .901.527l2.157 4.408 2.14-4.408a.944.944 0 0 1 1.269-.428.95.95 0 0 1 .444 1.268l-2.981 6.105a.96.96 0 0 1-.46.476.931.931 0 0 1-1.269-.428L8.004 8.016l-2.176 4.457z" clip-rule="evenodd"/>
</svg>
