<svg xmlns="http://www.w3.org/2000/svg" fill="none" viewBox="0 0 24 24">
  <path fill="currentColor" d="M20.5 1.454H13v-.97a.472.472 0 0 0-.187-.377.507.507 0 0 0-.421-.096l-9 1.94a.502.502 0 0 0-.282.17.476.476 0 0 0-.11.303V20.85c0 .11.039.217.11.303.071.086.17.146.282.17l9 1.94a.516.516 0 0 0 .421-.096.488.488 0 0 0 .187-.378v-.97h7.5c.265 0 .52-.102.707-.284a.955.955 0 0 0 .293-.685V2.424a.955.955 0 0 0-.293-.686 1.016 1.016 0 0 0-.707-.284zm-10 10.667c0 .288-.088.569-.253.808-.165.24-.399.426-.673.536-.274.11-.576.139-.867.083a1.515 1.515 0 0 1-.768-.398 1.442 1.442 0 0 1-.41-.745 1.414 1.414 0 0 1 .085-.84c.114-.266.306-.493.553-.653a1.534 1.534 0 0 1 1.894.18c.281.273.439.643.439 1.03zM19 19.88h-5.5a.508.508 0 0 1-.354-.142.478.478 0 0 1-.146-.343V3.879c0-.129.053-.252.146-.343a.508.508 0 0 1 .354-.142H19c.133 0 .26.05.354.142.093.09.146.214.146.343v15.515a.478.478 0 0 1-.146.343.508.508 0 0 1-.354.142z"/>
</svg>
