<svg xmlns="http://www.w3.org/2000/svg" fill="none" viewBox="0 0 24 24">
  <path fill="currentColor" d="M15.695 22.055h-2a.507.507 0 0 1-.353-.143.48.48 0 0 1-.147-.344v-4.376a.48.48 0 0 0-.146-.344.507.507 0 0 0-.354-.143h-1a.507.507 0 0 0-.353.143.48.48 0 0 0-.147.344v4.376a.48.48 0 0 1-.146.344.507.507 0 0 1-.354.143h-2c-.265 0-.52.102-.707.285a.96.96 0 0 0-.293.687.96.96 0 0 0 .293.688c.188.183.442.285.707.285h7c.265 0 .52-.102.707-.285a.96.96 0 0 0 .293-.688.96.96 0 0 0-.293-.687 1.015 1.015 0 0 0-.707-.285z"/>
  <path fill="currentColor" d="M18.76 3.014a.483.483 0 0 0-.168-.295.508.508 0 0 0-.326-.117h-4.57a.507.507 0 0 1-.354-.142.48.48 0 0 1-.147-.344v-.487a.96.96 0 0 0-.293-.687 1.014 1.014 0 0 0-.707-.285c-.265 0-.52.102-.707.285a.96.96 0 0 0-.293.687v.487a.48.48 0 0 1-.146.344.507.507 0 0 1-.354.142h-4.57a.508.508 0 0 0-.326.117.483.483 0 0 0-.169.295L3.784 14.686a.474.474 0 0 0 .115.39.499.499 0 0 0 .38.17h10.416c.133 0 .26.051.354.143a.48.48 0 0 1 .146.344v1.459a.96.96 0 0 0 .293.687c.188.183.442.285.707.285.265 0 .52-.102.707-.285a.96.96 0 0 0 .293-.688v-1.458a.48.48 0 0 1 .147-.344.507.507 0 0 1 .353-.143h2.417a.51.51 0 0 0 .38-.17.482.482 0 0 0 .114-.39L18.76 3.014z"/>
</svg>
