<svg xmlns="http://www.w3.org/2000/svg" fill="none" viewBox="0 0 24 24">
  <path fill="currentColor" d="M11.75 16.242a4.577 4.577 0 0 0 3.18-1.279 4.303 4.303 0 0 0 1.32-3.084V5.09a4.298 4.298 0 0 0-1.318-3.086A4.572 4.572 0 0 0 11.75.727c-1.194 0-2.338.46-3.182 1.278A4.298 4.298 0 0 0 7.25 5.091v6.788a4.303 4.303 0 0 0 1.32 3.084 4.577 4.577 0 0 0 3.18 1.28z"/>
  <path fill="currentColor" d="M18.75 8.485c-.265 0-.52.102-.707.284a.955.955 0 0 0-.293.686v2.424a5.73 5.73 0 0 1-1.757 4.114 6.096 6.096 0 0 1-4.243 1.704 6.097 6.097 0 0 1-4.243-1.704 5.73 5.73 0 0 1-1.757-4.114V9.455a.955.955 0 0 0-.293-.686 1.016 1.016 0 0 0-.707-.284c-.265 0-.52.102-.707.284a.955.955 0 0 0-.293.686v2.424a7.633 7.633 0 0 0 1.933 5.05 8.081 8.081 0 0 0 4.855 2.618.252.252 0 0 1 .152.082c.039.044.06.1.06.158v3.243c0 .258.105.504.293.686.187.182.442.284.707.284.265 0 .52-.102.707-.284a.955.955 0 0 0 .293-.686v-3.243c0-.058.021-.114.06-.158a.252.252 0 0 1 .152-.082 8.08 8.08 0 0 0 4.855-2.618 7.633 7.633 0 0 0 1.933-5.05V9.455a.955.955 0 0 0-.293-.686 1.016 1.016 0 0 0-.707-.284z"/>
</svg>
