<svg xmlns="http://www.w3.org/2000/svg" fill="none" viewBox="0 0 24 24">
  <path fill="currentColor" d="M11.501 4.313a2.12 2.12 0 0 0-1.286.436L5.568 8.333h-2.01a2.817 2.817 0 0 0-2.813 2.813v2.412a2.817 2.817 0 0 0 2.813 2.814h2.01l4.663 3.582a2.105 2.105 0 0 0 3.377-1.669V6.42A2.108 2.108 0 0 0 11.5 4.313z"/>
  <path fill="currentColor" d="M20.04 4.649a1.207 1.207 0 1 0-1.7 1.71 8.436 8.436 0 0 1 0 11.986 1.207 1.207 0 0 0 1.307 1.98c.147-.063.28-.154.392-.27a10.845 10.845 0 0 0 0-15.406z"/>
  <path fill="currentColor" d="M17.378 8.964a1.207 1.207 0 0 0-1.989 1.366 3.561 3.561 0 0 1 0 4.045 1.206 1.206 0 1 0 1.99 1.365 5.975 5.975 0 0 0 0-6.776z"/>
</svg>
